<svg width="150" height="150" viewBox="0 0 150 150" fill="none" xmlns="http://www.w3.org/2000/svg">
<path d="M85.185 60.435C85.2861 60.1156 85.3663 59.7899 85.425 59.46C85.815 57.12 86.16 54.75 86.58 52.41C87.135 49.41 87.75 46.41 88.365 43.41C88.98 40.41 89.625 37.83 90.18 35.04C90.3948 33.7542 90.535 32.457 90.6 31.155C90.78 28.8 90.945 26.445 91.08 24.09C91.17 22.59 91.17 21.09 91.245 19.59C91.245 18.405 91.335 17.22 91.47 16.05C91.5822 15.0945 91.9491 14.1866 92.5322 13.4214C93.1154 12.6561 93.8934 12.0616 94.785 11.7C95.0543 11.5746 95.3439 11.4984 95.64 11.475C97.0391 11.3128 98.4567 11.4561 99.795 11.895C100.51 12.1535 101.175 12.5341 101.76 13.02C102.732 13.7852 103.504 14.7742 104.011 15.9026C104.518 17.031 104.744 18.2652 104.67 19.5C104.67 20.7 104.52 21.915 104.46 23.115C104.22 26.97 103.95 30.825 103.77 34.68C103.62 37.5 103.5 40.365 103.5 43.245C103.403 46.382 102.899 49.493 102 52.5C101.228 55.463 100.627 58.4679 100.2 61.5C99.96 63.225 99.795 64.965 99.54 66.69C99.4975 67.2787 99.6143 67.868 99.8783 68.3959C100.142 68.9238 100.544 69.3708 101.04 69.69C101.304 69.8782 101.61 69.9997 101.931 70.0441C102.252 70.0885 102.58 70.0545 102.885 69.945C104.247 69.6332 105.498 68.9535 106.5 67.98C107.88 66.675 109.2 65.31 110.58 64.02C112.982 61.6444 115.161 59.0536 117.09 56.28C118.98 53.67 120.63 50.895 122.37 48.18C123.193 46.6646 124.292 45.3164 125.61 44.205C126.537 43.4642 127.596 42.9045 128.73 42.555C129.637 42.2608 130.609 42.2301 131.533 42.4664C132.457 42.7027 133.295 43.1964 133.95 43.89C134.359 44.2845 134.67 44.7696 134.858 45.3064C135.046 45.8431 135.105 46.4164 135.03 46.98C134.958 47.9431 134.693 48.8818 134.25 49.74L134.115 49.995C132.854 52.8855 131.285 55.6314 129.435 58.185C128.76 59.13 128.235 60.165 127.65 61.185C125.94 64.185 124.005 66.975 122.025 69.765C120.315 72.15 118.635 74.55 117.015 76.995C116.055 78.495 115.23 79.995 114.36 81.6C113.82 82.624 113.561 83.7732 113.61 84.93C113.733 89.3863 113.502 93.8453 112.92 98.265C112.352 101.568 111.55 104.826 110.52 108.015C109.755 110.569 108.75 113.045 107.52 115.41C107.254 115.895 107.018 116.396 106.815 116.91C104.985 121.695 102.72 126.285 100.68 130.98C99.7737 133.229 99.1782 135.59 98.91 138C98.55 140.7 98.145 143.4 97.785 146.115C97.68 146.91 97.62 147.72 97.545 148.575H96C95.9776 148.3 95.9776 148.025 96 147.75L96.855 140.43L97.035 138.93C95.715 139.155 94.44 139.35 93.18 139.59C90.7057 140.028 88.1884 140.174 85.68 140.025C84.18 139.95 82.8 139.74 81.36 139.605C79.92 139.47 78.87 139.38 77.625 139.29L74.325 139.035H73.215C73.1353 139.029 73.0578 139.006 72.9879 138.967C72.918 138.928 72.8573 138.874 72.81 138.81C72.9333 138.73 73.0707 138.674 73.215 138.645C73.95 138.645 74.715 138.645 75.42 138.645L78.21 138.84C79.95 138.975 81.675 139.155 83.415 139.23C85.9947 139.435 88.5889 139.37 91.155 139.035C92.955 138.72 94.77 138.42 96.585 138.135C96.7932 138.123 96.9886 138.03 97.1289 137.876C97.2692 137.722 97.3432 137.518 97.335 137.31C97.44 136.365 97.65 135.42 97.815 134.475C97.824 134.3 97.824 134.125 97.815 133.95C97.02 134.16 96.315 134.4 95.52 134.535C93.4014 134.966 91.2469 135.197 89.085 135.225C86.745 135.225 84.405 135.3 82.065 135.315C79.725 135.33 77.565 135.315 75.42 135.315C73.92 135.315 72.525 135.315 71.07 135.195C70.7257 135.155 70.3848 135.09 70.05 135C70.26 134.535 70.605 134.685 70.86 134.685C71.985 134.685 73.125 134.835 74.25 134.82C76.185 134.82 78.12 134.64 80.07 134.565C81.57 134.565 83.07 134.445 84.645 134.385C87.195 134.295 89.76 134.25 92.31 134.055C94.0646 134.065 95.8118 133.828 97.5 133.35C97.6831 133.295 97.8512 133.198 97.9915 133.068C98.1318 132.938 98.2408 132.778 98.31 132.6C99.69 129.42 101.1 126.24 102.495 123.075C103.14 121.575 103.755 120.075 104.385 118.575C105.015 117.075 105.45 115.83 106.11 114.51C107.471 111.718 108.522 108.786 109.245 105.765C109.875 103.245 110.43 100.695 111.03 98.16C111.03 97.965 111.03 97.77 111.12 97.545C110.996 97.4631 110.859 97.4023 110.715 97.365C108.954 97.1786 107.228 96.7495 105.585 96.09C99.4275 93.9044 93.4154 91.3292 87.585 88.38C84.4274 86.8335 81.4152 85.0062 78.585 82.92C77.4 82.035 76.125 81.27 74.895 80.46L74.4 80.085C74.55 79.605 74.82 79.74 75.06 79.875C75.75 80.25 76.44 80.61 77.1 81.045C81.3185 83.8264 85.7126 86.3317 90.255 88.545C94.755 90.78 99.495 92.82 104.265 94.62C106.155 95.325 108.075 95.91 110.01 96.465C110.385 96.57 110.775 96.615 111.24 96.705C111.624 93.5801 111.799 90.4332 111.765 87.285L105.255 85.38C105.367 85.2194 105.533 85.104 105.723 85.0545C105.912 85.0051 106.114 85.0247 106.29 85.11C107.115 85.29 107.955 85.515 108.78 85.71L111.78 86.415C111.7 84.8223 111.945 83.2301 112.5 81.735C110.858 81.0964 109.336 80.1834 108 79.035C108.202 78.893 108.443 78.8168 108.69 78.8168C108.937 78.8168 109.178 78.893 109.38 79.035C110.07 79.38 110.715 79.785 111.375 80.16L112.68 80.88L118.89 71.025C116.604 69.3331 114.582 67.311 112.89 65.025C113.115 64.605 113.355 64.74 113.565 64.935C114 65.355 114.39 65.79 114.825 66.195L119.325 70.38C121.715 67.5179 123.811 64.4223 125.58 61.14C124.86 60.72 124.08 60.3 123.405 59.85C122.625 59.4725 121.915 58.9653 121.305 58.35C121.635 58.005 121.935 58.245 122.175 58.35C123.225 58.98 124.26 59.64 125.31 60.285L125.91 60.675L126.165 60.315C127.35 58.425 128.55 56.535 129.72 54.615C130.365 53.55 130.98 52.455 131.58 51.345C131.985 50.595 132.36 49.845 132.735 49.035C132.945 48.5942 133.12 48.1379 133.26 47.67C133.401 47.1923 133.415 46.6859 133.299 46.2013C133.184 45.7168 132.944 45.2709 132.602 44.9082C132.261 44.5455 131.83 44.2786 131.353 44.1342C130.877 43.9897 130.37 43.9728 129.885 44.085C128.937 44.2637 128.034 44.6289 127.228 45.1593C126.422 45.6898 125.729 46.3749 125.19 47.175C124.53 48.12 124.005 49.17 123.39 50.175C122.565 51.495 121.71 52.785 120.87 54.075L120.255 55.08C120.72 55.545 121.155 56.01 121.62 56.445L123.525 58.17C123.672 58.3373 123.802 58.5181 123.915 58.71C123.495 59.01 123.27 58.8 123.045 58.62L119.7 55.92L114.645 62.595C115.723 63.3873 116.728 64.2759 117.645 65.25C117.3 65.625 117.06 65.415 116.835 65.25L114.105 63.225L112.605 64.62L107.73 69.36C106.334 70.7165 104.572 71.6343 102.66 72L103.11 72.51C105.483 74.8337 108.139 76.8495 111.015 78.51C111.15 78.5663 111.277 78.6421 111.39 78.735C111.469 78.8696 111.525 79.0167 111.555 79.17C111.405 79.17 111.24 79.29 111.105 79.26C110.871 79.187 110.645 79.0916 110.43 78.975C107.405 77.455 104.705 75.3611 102.48 72.81C102.107 72.3193 101.578 71.9701 100.98 71.82C100.562 71.7259 100.169 71.5433 99.8275 71.2846C99.4859 71.0258 99.2038 70.6969 99 70.32C98.265 70.41 97.5 70.5 96.87 70.545C96.24 70.59 95.055 70.545 94.14 70.65C94.0464 70.6729 93.9486 70.6729 93.855 70.65C93.69 70.545 93.555 70.395 93.39 70.275C93.5343 70.1668 93.6969 70.0855 93.87 70.035L97.41 69.9C97.7621 69.8734 98.1126 69.8284 98.46 69.765C97.7593 67.8401 97.6599 65.7477 98.175 63.765C98.76 60.3 99.405 56.835 100.08 53.385C100.47 51.39 101.025 49.41 101.43 47.385C101.607 46.3944 101.702 45.3911 101.715 44.385C101.715 41.715 101.805 39.03 101.865 36.345C101.865 35.28 101.865 34.23 101.97 33.165C101.97 33 101.97 32.835 101.97 32.61C101.535 32.61 101.145 32.61 100.785 32.745C99.4127 32.9202 98.0216 32.8848 96.66 32.64C96.21 32.64 95.745 32.505 95.28 32.43C95.04 32.43 94.815 32.28 94.905 32.025C94.995 31.77 95.205 31.755 95.355 31.77C96.405 31.77 97.455 31.89 98.52 31.92C99.585 31.95 100.77 31.92 101.955 31.92C101.955 31.335 102.06 30.855 102.09 30.42L102.765 19.92C102.757 19.7951 102.757 19.6699 102.765 19.545C102.84 18.576 102.672 17.6036 102.276 16.7158C101.881 15.828 101.27 15.0527 100.5 14.46C99.8876 13.9017 99.1063 13.5638 98.28 13.5C97.74 13.425 97.2 13.365 96.66 13.335C95.9055 13.281 95.1562 13.4952 94.5442 13.9398C93.9322 14.3843 93.4969 15.0308 93.315 15.765C93.1367 16.4214 93.0311 17.0955 93 17.775C92.865 20.4 92.79 23.04 92.67 25.665C92.67 27 92.475 28.32 92.37 29.67C93.5684 30.1338 94.8168 30.4559 96.09 30.63C97.29 30.87 98.565 30.63 99.765 31.035V31.245C99.615 31.335 99.465 31.485 99.3 31.5C97.3166 31.7264 95.3081 31.5581 93.39 31.005C93.0356 30.8777 92.6898 30.7274 92.355 30.555C92.3427 30.6847 92.3427 30.8153 92.355 30.945C92.2758 33.3077 91.9234 35.6533 91.305 37.935C90.63 40.935 90.06 43.845 89.43 46.935C92.5185 47.9625 95.7455 48.5138 99 48.57C99.18 49.065 98.865 49.125 98.655 49.14C97.7618 49.2762 96.8581 49.3314 95.955 49.305C93.8288 49.0733 91.7325 48.6209 89.7 47.955C89.5952 47.9462 89.4898 47.9462 89.385 47.955C89.115 49.23 88.815 50.46 88.605 51.72C88.17 54.21 87.81 56.715 87.375 59.22C87.257 59.9928 87.0454 60.7483 86.745 61.47C86.646 61.718 86.4873 61.9376 86.283 62.1094C86.0786 62.2813 85.835 62.3999 85.5737 62.4548C85.3124 62.5098 85.0416 62.4993 84.7854 62.4243C84.5292 62.3493 84.2954 62.2121 84.105 62.025C83.7797 61.7743 83.5141 61.4546 83.3273 61.0889C83.1406 60.7231 83.0373 60.3205 83.025 59.91C83.025 58.695 83.025 57.465 83.025 56.235C83.025 55.845 83.115 55.455 83.13 55.065C83.25 51.395 83.36 47.73 83.46 44.07C83.46 43.71 83.46 43.335 83.46 42.96C81.4742 43.2972 79.4711 43.5226 77.46 43.635C75.4764 43.5582 73.4984 43.3729 71.535 43.08C71.535 43.665 71.64 44.205 71.685 44.73C71.955 47.865 72.285 51 72.48 54.135C72.4943 55.4386 72.4191 56.7417 72.255 58.035C72.2072 58.3751 72.1165 58.7077 71.985 59.025C71.8568 59.4308 71.6285 59.7978 71.3212 60.0922C71.0139 60.3866 70.6374 60.5989 70.2264 60.7094C69.8155 60.82 69.3833 60.8254 68.9697 60.725C68.5562 60.6246 68.1745 60.4217 67.86 60.135L66.84 59.175C66.6121 59.313 66.3917 59.4632 66.18 59.625C64.9528 60.6598 63.5508 61.4675 62.04 62.01C60.285 62.715 58.515 63.39 56.76 64.08C56.562 64.1787 56.3492 64.2446 56.13 64.275C55.98 64.275 55.755 64.185 55.71 64.065C55.6865 63.9898 55.6838 63.9096 55.7023 63.833C55.7208 63.7564 55.7597 63.6862 55.815 63.63C56.0834 63.4215 56.3754 63.2453 56.685 63.105C58.785 62.19 60.9 61.32 62.985 60.36C64.17 59.805 65.31 59.115 66.48 58.485C66.4338 58.3299 66.3735 58.1792 66.3 58.035C65.2136 56.1222 64.3048 54.1138 63.585 52.035C61.935 47.67 60.045 43.395 58.59 38.94C57.36 35.145 55.875 31.44 54.81 27.6C54.06 24.84 53.31 22.095 52.35 19.395C51.6922 17.4995 50.5369 15.8157 49.005 14.52C48.3055 13.9525 47.4232 13.6593 46.5232 13.6952C45.6232 13.7311 44.7671 14.0936 44.115 14.715C43.3837 15.3591 42.813 16.1651 42.4484 17.0687C42.0838 17.9724 41.9354 18.9488 42.015 19.92C42.2025 22.3972 42.5634 24.8583 43.095 27.285C43.725 30.525 44.715 33.675 45.615 36.855C46.4853 39.8812 47.0876 42.9782 47.415 46.11C47.5287 47.1856 47.7345 48.2495 48.03 49.29C48.6073 51.5048 49.3289 53.6794 50.19 55.8C51.045 57.81 51.78 59.88 52.59 61.905C53.299 63.8219 53.4803 65.8941 53.115 67.905C52.8128 70.6691 52.7276 73.4526 52.86 76.23C52.86 76.38 52.86 76.515 52.86 76.695C53.5684 76.7256 54.2745 76.7957 54.975 76.905C61.0229 77.9611 66.8215 80.133 72.075 83.31C74.6853 84.9329 77.1675 86.7532 79.5 88.755C82.17 91.065 84.78 93.42 87.285 95.895C87.945 96.555 88.56 97.26 89.19 97.95C89.385 98.175 89.685 98.385 89.475 98.895C89.2853 98.7735 89.1048 98.6381 88.935 98.49C86.7068 96.0968 84.3482 93.8284 81.87 91.695C79.0526 89.1661 76.0436 86.8592 72.87 84.795C70.4191 83.2346 67.8157 81.9279 65.1 80.895C65.1 80.895 65.1 80.985 65.1 81.015C71.7319 87.1548 76.5563 94.9932 79.05 103.68C79.9544 106.621 80.6166 109.631 81.03 112.68C81.36 115.005 81.75 117.33 82.02 119.67C82.215 121.365 82.26 123.09 82.335 124.8C82.3195 125.036 82.269 125.269 82.185 125.49H81.99C81.9223 125.352 81.872 125.206 81.84 125.055C81.8032 122.5 81.5625 119.952 81.12 117.435C80.5476 113.226 79.6652 109.064 78.48 104.985C77.1709 100.469 75.2587 96.1499 72.795 92.145C70.6829 88.4975 68.1064 85.1394 65.13 82.155C64.59 81.63 63.99 81.135 63.42 80.655C62.6719 79.9678 61.7804 79.4554 60.81 79.155C58.6208 78.4072 56.3798 77.8206 54.105 77.4C53.7467 77.352 53.3863 77.3219 53.025 77.31L52.5 81.075L52.635 81.165L54.24 79.575C54.435 79.38 54.57 78.975 54.915 79.26C55.005 79.26 54.915 79.785 54.765 79.95C54.2035 80.6391 53.5971 81.2905 52.95 81.9C52.4932 82.2693 52.1243 82.7355 51.87 83.265C51.45 84.18 51.06 85.095 50.67 86.025C50.6257 86.2031 50.6526 86.3914 50.745 86.55C51.78 85.71 52.86 84.9 53.865 84.015C54.87 83.13 55.755 82.23 56.715 81.33C56.91 81.135 57.12 80.88 57.465 81.225C57.45 81.3379 57.4089 81.4457 57.345 81.54C55.9287 83.093 54.4263 84.5653 52.845 85.95C52.05 86.535 51.345 87.165 50.565 87.825C50.3158 88.054 50.121 88.3359 49.995 88.65C49.8681 89.053 49.6389 89.4162 49.3298 89.7042C49.0207 89.9923 48.6422 90.1953 48.2312 90.2935C47.8203 90.3917 47.3909 90.3817 46.985 90.2645C46.5791 90.1474 46.2104 89.9271 45.915 89.625C44.6696 88.3959 43.5905 87.0091 42.705 85.5C41.325 83.265 39.915 81 38.52 78.81C38.385 78.615 38.22 78.435 38.085 78.255C37.425 78.885 36.855 79.53 36.195 80.055C35.518 80.5506 34.8062 80.9968 34.065 81.39C33.33 81.81 32.565 82.2 31.83 82.59C31.485 82.14 31.74 81.945 31.995 81.78C32.745 81.285 33.495 80.775 34.29 80.28C35.4783 79.4433 36.5567 78.4606 37.5 77.355C37.4734 77.2716 37.4382 77.1911 37.395 77.115C36.36 75.615 35.355 73.98 34.305 72.435C33.3047 70.9942 32.0242 69.7698 30.54 68.835C29.67 68.28 28.815 67.68 27.99 67.065C26.9999 66.3251 25.8953 65.7525 24.72 65.37L22.59 64.77C21.5716 64.47 20.4884 64.47 19.47 64.77C19.0673 64.8479 18.6862 65.0118 18.3527 65.2505C18.0192 65.4892 17.7411 65.7971 17.5375 66.1531C17.3338 66.5091 17.2094 66.9048 17.1728 67.3133C17.1361 67.7218 17.188 68.1334 17.325 68.52C17.7233 69.7164 18.2252 70.8758 18.825 71.985C20.475 75.285 22.185 78.555 23.91 81.825C24.735 83.325 25.635 84.9 26.46 86.325C27.0612 85.9609 27.6822 85.6304 28.32 85.335C29.6451 84.8116 30.9078 84.1425 32.085 83.34C33.03 82.71 34.035 82.185 35.01 81.615C35.1508 81.5137 35.3082 81.4375 35.475 81.39C35.5423 81.3842 35.6102 81.3918 35.6746 81.4124C35.7389 81.433 35.7986 81.4661 35.85 81.51C35.8828 81.5724 35.9 81.6419 35.9 81.7125C35.9 81.7831 35.8828 81.8526 35.85 81.915C35.7209 82.059 35.5688 82.1806 35.4 82.275C34.14 83.115 32.91 83.97 31.635 84.765C31.0015 85.1317 30.3452 85.4574 29.67 85.74C28.77 86.145 27.855 86.49 26.91 86.88L27.21 87.405C27.795 88.32 28.395 89.22 28.965 90.15C30.7668 93.203 32.2209 96.4482 33.3 99.825C34.11 102.225 34.95 104.61 35.79 106.995C35.902 107.348 36.0583 107.686 36.255 108C37.8674 110.88 39.7617 113.594 41.91 116.1C44.07 118.35 46.41 120.405 48.72 122.535C49.0736 122.845 49.4553 123.121 49.86 123.36C51.795 124.59 53.715 125.82 55.665 127.005C56.5385 127.493 57.2963 128.163 57.8866 128.971C58.4769 129.779 58.8857 130.705 59.085 131.685C59.085 131.85 59.175 132.015 59.235 132.24C59.4197 132.255 59.6053 132.255 59.79 132.24C61.665 132.24 63.54 132.24 65.4 132.09C67.3071 131.928 69.2047 131.668 71.085 131.31C72.4801 131.005 73.8071 130.445 75 129.66C75.1874 129.55 75.3829 129.455 75.585 129.375L75.705 129.51C75.6676 129.652 75.6012 129.785 75.51 129.9C75.1697 130.182 74.8087 130.437 74.43 130.665C72.1267 131.891 69.622 132.694 67.035 133.035C64.6652 133.305 62.2784 133.395 59.895 133.305H59.055C58.14 138.39 58.035 143.58 56.7 148.62H54.675C54.6754 148.119 54.7054 147.618 54.765 147.12C55.125 145.065 55.56 143.01 55.905 140.955C56.085 139.92 56.1 138.855 56.235 137.805C56.46 136.2 56.73 134.595 56.955 132.99C56.9925 132.6 56.9465 132.206 56.82 131.835C56.3699 130.526 55.4211 129.448 54.18 128.835C53.295 128.355 52.485 127.74 51.63 127.2C51.03 126.825 50.43 126.435 49.815 126.09C48.4292 125.334 47.1441 124.407 45.99 123.33C44.27 121.71 42.56 120.08 40.86 118.44C39.1849 116.658 37.6785 114.725 36.36 112.665C36.105 112.305 35.91 111.9 35.64 111.54C34.029 109.279 32.8586 106.735 32.19 104.04C31.74 102.435 31.215 100.845 30.69 99.255C29.6284 95.8767 28.1146 92.6575 26.19 89.685C24.0628 86.4923 22.1535 83.1598 20.475 79.71C19.17 76.995 17.685 74.385 16.365 71.685C15.878 70.6919 15.5104 69.6446 15.27 68.565C14.9925 67.3633 15.1883 66.1008 15.8167 65.0395C16.4451 63.9782 17.4579 63.1995 18.645 62.865C20.0709 62.358 21.6217 62.3212 23.07 62.76C24.405 63.21 25.755 63.6 27.045 64.14C27.832 64.5368 28.5846 64.9984 29.295 65.52C29.955 65.955 30.57 66.45 31.245 66.855C33.3225 68.106 35.0872 69.8143 36.405 71.85C37.98 74.235 39.585 76.59 41.13 78.99C42.165 80.61 43.08 82.305 44.13 83.91C44.94 85.17 45.84 86.37 46.74 87.57C47.0357 87.8881 47.368 88.17 47.73 88.41C48.1705 87.8863 48.4286 87.2334 48.465 86.55C48.7143 84.901 49.3977 83.3479 50.445 82.05C50.6152 81.7892 50.7182 81.4903 50.745 81.18C50.745 80.715 50.745 80.25 50.85 79.785C50.955 78.015 51.105 76.245 51.12 74.475C51.1223 72.3591 51.2526 70.2452 51.51 68.145C51.8838 65.9763 51.6609 63.7467 50.865 61.695C50.085 59.775 49.365 57.855 48.585 55.92C47.4497 53.1398 46.5857 50.2564 46.005 47.31C45.795 46.02 45.72 44.715 45.525 43.425C44.9973 40.3169 44.2352 37.2531 43.245 34.26C42.1058 30.6162 41.2483 26.8902 40.68 23.115C40.2975 21.103 40.2975 19.037 40.68 17.025C40.8421 16.3609 41.1215 15.731 41.505 15.165C42.0148 14.4081 42.5814 13.691 43.2 13.02C44.0707 12.252 45.162 11.779 46.3177 11.6685C47.4735 11.5581 48.6346 11.8158 49.635 12.405C50.3221 12.9197 50.9599 13.4972 51.54 14.13C53.229 16.1112 54.4219 18.4662 55.02 21C55.665 23.295 56.22 25.635 56.94 27.9C58.035 31.395 59.295 34.845 60.375 38.4C61.875 43.05 63.795 47.52 65.52 52.065C66.2504 54.053 67.1591 55.9708 68.235 57.795C68.4484 58.1547 68.711 58.4828 69.015 58.77C69.092 58.8626 69.1933 58.9317 69.3076 58.9697C69.4218 59.0076 69.5444 59.0129 69.6614 58.9848C69.7785 58.9567 69.8854 58.8964 69.9699 58.8107C70.0545 58.725 70.1134 58.6174 70.14 58.5C70.3454 58.0245 70.4672 57.517 70.5 57C70.5 55.125 70.5 53.265 70.335 51.39C70.17 49.515 70.05 47.76 69.93 45.945C69.795 43.89 69.645 41.835 69.555 39.765C69.4949 37.9663 69.6612 36.1672 70.05 34.41C70.4394 32.2063 70.6352 29.9728 70.635 27.735C70.635 26.025 70.635 24.33 70.635 22.635C70.635 20.52 70.8 18.405 70.89 16.29C70.89 15.12 70.89 13.935 70.98 12.75C70.9669 11.1966 71.1586 9.64831 71.55 8.145C71.8704 6.94533 72.4356 5.82495 73.2101 4.85431C73.9845 3.88368 74.9514 3.08381 76.05 2.505C76.6389 2.13768 77.2959 1.89329 77.9817 1.78654C78.6675 1.6798 79.3678 1.71291 80.0404 1.88387C80.7131 2.05484 81.3442 2.36012 81.8958 2.78136C82.4473 3.2026 82.908 3.73108 83.25 4.335C84.7847 6.60011 85.6241 9.26427 85.665 12C85.665 14.415 85.35 16.815 85.17 19.215C84.96 22.215 84.78 25.215 84.735 28.14C84.69 31.065 84.825 34.14 84.93 37.215C85.005 39.225 85.29 41.235 85.305 43.215C85.305 46.005 85.2 48.825 85.095 51.63C85.095 53.445 84.855 55.26 84.75 57.075C84.75 57.855 84.75 58.575 84.75 59.415C84.7957 59.7604 84.8865 60.0982 85.02 60.42L85.185 60.435ZM82.98 22.83C82.264 23.1169 81.5268 23.3476 80.775 23.52C78.6267 23.76 76.4583 23.76 74.31 23.52C73.755 23.52 73.215 23.355 72.63 23.265C72.63 23.49 72.63 23.625 72.63 23.775C72.63 25.98 72.63 28.2 72.465 30.405C72.3874 31.5542 72.2321 32.6968 72 33.825C71.5655 35.9718 71.3693 38.1601 71.415 40.35C71.415 40.95 71.49 41.565 71.52 42.21C72.225 42.21 72.825 42.345 73.44 42.345C75.0085 42.4425 76.5815 42.4425 78.15 42.345C78.8114 42.2475 79.4836 42.2475 80.145 42.345C81.2215 42.4626 82.3106 42.3761 83.355 42.09C83.355 41.805 83.355 41.565 83.355 41.325C83.205 38.505 82.98 35.685 82.905 32.865C82.815 30.345 82.905 27.84 82.905 25.365C82.905 25.11 82.905 24.84 82.905 24.585L78.99 24.825C78.75 24.825 78.45 24.825 78.36 24.45C78.8539 24.18 79.4028 24.0261 79.965 24L82.575 23.565C82.995 23.535 83.1 23.295 82.98 22.83ZM72.48 22.665C76.0116 23.3688 79.6683 23.0939 83.055 21.87C83.055 21.105 83.205 20.37 83.265 19.59C83.5748 17.0014 83.735 14.3971 83.745 11.79C83.6403 9.31182 82.7587 6.92937 81.225 4.98C80.9862 4.63315 80.6687 4.34771 80.2986 4.14697C79.9284 3.94624 79.516 3.83591 79.095 3.825C78.0139 3.76889 76.9488 4.1044 76.095 4.77C75.2255 5.41844 74.5071 6.24775 73.9892 7.20074C73.4712 8.15372 73.1662 9.20771 73.095 10.29C72.87 13.56 72.705 16.815 72.525 20.085C72.45 20.91 72.495 21.75 72.495 22.665H72.48Z" fill="black"/>
<path d="M32.52 93C32.7245 93.0395 32.9162 93.1286 33.0783 93.2593C33.2404 93.3901 33.368 93.5585 33.45 93.75C33.9224 94.5744 34.3239 95.4375 34.65 96.33C35.6443 99.3369 36.8163 102.282 38.16 105.15C38.963 106.884 39.9701 108.515 41.16 110.01C42.66 111.87 43.935 113.79 45.435 115.575C46.545 116.91 47.865 118.065 49.095 119.31C49.2915 119.494 49.4768 119.689 49.65 119.895C49.65 120.015 49.65 120.21 49.65 120.36H49.485C48.69 119.67 47.88 118.995 47.1 118.29C44.0954 115.382 41.4193 112.153 39.12 108.66C38.0552 107.058 37.1936 105.33 36.555 103.515C35.5574 101.223 34.6959 98.8737 33.975 96.48C33.7592 95.5475 33.3837 94.6594 32.865 93.855C32.76 93.69 32.61 93.54 32.52 93.375C32.5064 93.2504 32.5064 93.1246 32.52 93Z" fill="black"/>
<path d="M60.3 45.27C60.1952 45.4579 60.0639 45.6297 59.91 45.78C57.7794 47.3924 55.1717 48.2475 52.5 48.21C51.735 48.21 51 48.315 50.22 48.33C49.8018 48.3222 49.3852 48.277 48.975 48.195C48.72 48.195 48.435 48.06 48.51 47.76C48.5631 47.663 48.6384 47.5799 48.7296 47.5174C48.8208 47.4548 48.9254 47.4146 49.035 47.4C50.04 47.31 51.045 47.265 52.035 47.235C54.3736 47.1999 56.6766 46.6574 58.785 45.645C58.9958 45.4774 59.2402 45.3571 59.5016 45.2924C59.7631 45.2277 60.0354 45.22 60.3 45.27Z" fill="black"/>
<path d="M72.075 60C72.2705 59.8861 72.4833 59.805 72.705 59.76C74.28 59.76 75.84 59.865 77.415 59.865C78.63 59.865 79.86 59.775 81.09 59.715C81.2536 59.6848 81.4214 59.6848 81.585 59.715C81.735 59.715 81.84 59.895 81.96 60C82.08 60.105 81.765 60.33 81.645 60.345C80.252 60.7273 78.8145 60.924 77.37 60.93C76.125 60.795 74.865 60.78 73.62 60.705C73.3231 60.7353 73.0234 60.686 72.7519 60.5621C72.4803 60.4382 72.2467 60.2442 72.075 60Z" fill="black"/>
<path d="M87.63 64.875C87.8282 64.8032 88.035 64.7578 88.245 64.74C89.745 64.935 91.245 65.175 92.835 65.355C93.3043 65.3924 93.7758 65.3924 94.245 65.355C95.19 65.355 96.15 65.355 97.11 65.355C97.2089 65.3669 97.3037 65.4015 97.387 65.4562C97.4703 65.5108 97.5398 65.584 97.59 65.67C97.59 65.97 97.365 65.97 97.14 66.015C95.1352 66.4199 93.0698 66.4199 91.065 66.015C90.165 65.82 89.235 65.715 88.32 65.52C88.0752 65.4441 87.8428 65.3329 87.63 65.19V64.875Z" fill="black"/>
<path d="M81.855 77.31C81.5649 77.2561 81.2791 77.1809 81 77.085C78.36 76.215 75.735 75.27 73.065 74.445C71.73 74.04 70.335 73.875 68.97 73.59C68.7459 73.5337 68.5254 73.4636 68.31 73.38V73.185C68.475 73.185 68.64 72.945 68.805 72.96C69.3689 72.9748 69.9307 73.035 70.485 73.14C73.9654 73.9435 77.3723 75.0374 80.67 76.41C81.12 76.59 81.525 76.815 81.96 77.025L81.855 77.31Z" fill="black"/>
<path d="M52.815 23.325C52.74 23.205 52.65 23.1 52.59 22.98C51.9 21.645 51.24 20.31 50.55 18.99C49.8861 17.494 48.7182 16.2783 47.25 15.555C47.085 15.555 46.875 15.24 46.89 15.105C46.905 14.97 47.25 14.85 47.475 14.88C48.0941 14.936 48.6758 15.2004 49.125 15.63C49.8406 16.2359 50.4184 16.9877 50.82 17.835C51.555 19.335 52.32 21 52.95 22.59C53.055 22.815 53.325 23.13 52.815 23.325Z" fill="black"/>
<path d="M92.79 46.155L97.29 46.515C97.455 46.515 97.605 46.755 97.77 46.89C97.635 47.04 97.515 47.31 97.365 47.325C96.4995 47.4843 95.6199 47.5546 94.74 47.535C93.5515 47.3738 92.3742 47.1383 91.215 46.83C91.08 46.83 90.975 46.59 90.855 46.455C90.99 46.455 91.125 46.23 91.275 46.215C91.755 46.215 92.25 46.215 92.775 46.215L92.79 46.155Z" fill="black"/>
<path d="M46.125 31.5C46.3564 31.3417 46.6026 31.2061 46.86 31.095L53.115 29.145C53.2262 29.0985 53.3417 29.0633 53.46 29.04C53.58 29.04 53.775 29.115 53.805 29.205C53.835 29.295 53.805 29.475 53.685 29.58C53.6039 29.6703 53.5004 29.7375 53.385 29.775C51.51 30.465 49.665 31.17 47.775 31.815C47.5177 31.9182 47.2413 31.9649 46.9643 31.952C46.6874 31.939 46.4165 31.8667 46.17 31.74L46.125 31.5Z" fill="black"/>
<path d="M20.73 71.475C20.82 71.61 20.955 71.745 21.045 71.91C22.35 74.325 23.67 76.74 24.945 79.17C25.425 80.085 25.8 81.045 26.205 81.99C26.2299 82.1339 26.2299 82.2811 26.205 82.425C25.725 82.425 25.68 82.125 25.575 81.9C25.215 81.225 24.945 80.505 24.585 79.845C23.595 78.03 22.56 76.245 21.585 74.43C21.18 73.68 20.865 72.93 20.52 72.09C20.46 71.895 20.265 71.64 20.73 71.475Z" fill="black"/>
<path d="M99.465 50.685C99.1445 50.7583 98.8183 50.8035 98.49 50.82C96.3302 50.8582 94.1725 50.662 92.055 50.235C91.7688 50.1837 91.4911 50.0928 91.23 49.965C91.11 49.965 90.96 49.68 90.99 49.575C91.0299 49.5057 91.0864 49.4474 91.1545 49.4055C91.2226 49.3636 91.3001 49.3393 91.38 49.335C91.9237 49.3439 92.4657 49.3991 93 49.5C94.725 49.8593 96.4752 50.085 98.235 50.175C98.6581 50.218 99.0787 50.2831 99.495 50.37L99.465 50.685Z" fill="black"/>
<path d="M75.78 59.13C75.8512 59.0139 75.9315 58.9035 76.02 58.8C76.1253 58.7334 76.2424 58.6875 76.365 58.665C78.195 58.395 80.04 58.125 81.885 57.885C82.0643 57.8623 82.2457 57.8623 82.425 57.885C82.635 58.29 82.425 58.41 82.11 58.485C80.7744 58.9783 79.3637 59.2371 77.94 59.25C77.475 59.25 77.01 59.25 76.545 59.25C76.32 59.265 76.11 59.19 75.78 59.13Z" fill="black"/>
<path d="M100.995 20.835L100.905 20.31C100.815 19.635 100.755 18.96 100.635 18.285C100.509 17.6317 100.228 17.0183 99.8156 16.4962C99.4031 15.9742 98.8714 15.5588 98.265 15.285C98.175 15.285 98.055 15.21 98.01 15.135C97.9161 14.9799 97.831 14.8196 97.755 14.655C97.9323 14.5654 98.1266 14.5143 98.325 14.505C98.6113 14.5544 98.8829 14.6672 99.12 14.835C99.7586 15.2757 100.286 15.8588 100.661 16.5382C101.036 17.2176 101.248 17.9747 101.28 18.75C101.28 19.35 101.28 19.965 101.28 20.58C101.28 20.685 101.16 20.805 101.115 20.925L100.995 20.835Z" fill="black"/>
<path d="M59.325 43.035C57.6791 43.7428 55.9652 44.2806 54.21 44.64C53.76 44.73 53.64 44.64 53.19 44.37C53.3316 44.2465 53.4878 44.1407 53.655 44.055L58.065 42.69C58.3442 42.611 58.6306 42.5608 58.92 42.54C59.055 42.54 59.19 42.69 59.325 42.78V43.035Z" fill="black"/>
<path d="M129.075 52.395C128.595 52.02 128.835 51.84 128.94 51.675C129.42 50.88 129.93 50.1 130.44 49.29C130.992 48.4719 131.212 47.4744 131.055 46.5C131.028 46.3047 130.978 46.1133 130.905 45.93C130.815 45.705 130.77 45.45 131.04 45.405C131.141 45.4035 131.24 45.4275 131.33 45.4747C131.419 45.5219 131.495 45.5908 131.55 45.675C131.721 46.1571 131.812 46.6637 131.82 47.175C131.793 47.702 131.644 48.2155 131.385 48.675C130.77 49.785 130.065 50.85 129.39 51.93L129.075 52.395Z" fill="black"/>
<path d="M90 62.835C89.58 62.835 89.16 62.835 88.755 62.835C88.4622 62.834 88.1722 62.778 87.9 62.67C87.72 62.58 87.615 62.34 87.48 62.16C87.66 62.07 87.855 61.89 88.035 61.905C88.89 61.905 89.745 62.01 90.6 62.085L91.395 62.175C91.65 62.175 91.935 62.175 91.89 62.565C91.89 62.67 91.575 62.82 91.395 62.835C90.93 62.835 90.465 62.835 90 62.835Z" fill="black"/>
<path d="M55.365 45.21C55.275 45.345 55.2 45.555 55.08 45.6C53.8774 46.0918 52.6174 46.4295 51.33 46.605C51.1729 46.5873 51.0174 46.5572 50.865 46.515C50.97 46.335 51.03 46.14 51.12 46.11L55.2 45L55.365 45.21Z" fill="black"/>
<path d="M104.31 72.705C104.978 72.9001 105.6 73.2295 106.136 73.6732C106.673 74.1168 107.113 74.6653 107.43 75.285C107.175 75.645 106.965 75.39 106.785 75.285L105.405 73.95C105.195 73.755 104.94 73.59 104.73 73.38C104.567 73.1702 104.426 72.944 104.31 72.705Z" fill="black"/>
<path d="M65.82 58.32C64.8449 59.0278 63.7742 59.5934 62.64 60C62.64 60 62.46 59.88 62.385 59.82C62.31 59.76 62.385 59.655 62.385 59.64C63.36 59.1 64.35 58.56 65.385 58.05C65.49 58.05 65.67 58.05 65.82 58.14V58.32Z" fill="black"/>
<path d="M114.675 64.5C116.31 65.49 116.955 66 117.075 66.705C116.955 66.705 116.805 66.705 116.745 66.705C116.025 66.195 115.245 65.685 114.63 65.205C114.405 65.055 114.255 64.785 114.675 64.5Z" fill="black"/>
<path d="M51.405 31.83C52.3791 31.0056 53.5732 30.4842 54.84 30.33C54.1244 30.8915 53.3312 31.3463 52.485 31.68C51.975 32.025 51.96 31.995 51.405 31.83Z" fill="black"/>
<path d="M32.535 84.87L35.34 83.19C35.4895 83.1733 35.6405 83.1733 35.79 83.19C35.4192 83.7362 34.8982 84.1634 34.29 84.42C33.8044 84.7881 33.2299 85.021 32.625 85.095L32.535 84.87Z" fill="black"/>
<path d="M96.375 71.505C95.4899 71.8915 94.4972 71.9552 93.57 71.685V71.46C93.735 71.37 93.915 71.205 94.065 71.22C94.8446 71.2052 95.6224 71.3011 96.375 71.505Z" fill="black"/>
<path d="M91.5 63.93H88.5C88.5 63.765 88.5 63.585 88.62 63.57C89.4781 63.2925 90.4019 63.2925 91.26 63.57C91.26 63.57 91.365 63.72 91.5 63.93Z" fill="black"/>
<path d="M101.535 22.935C101.685 23.1322 101.776 23.367 101.8 23.6134C101.824 23.8597 101.779 24.1078 101.67 24.33C101.55 24.825 101.82 25.47 101.205 25.935C101.143 25.77 101.098 25.5991 101.07 25.425C101.07 24.765 101.16 24.105 101.235 23.445C101.25 23.28 101.4 23.145 101.535 22.935Z" fill="black"/>
<path d="M78.33 74.4C78.195 74.4 78.045 74.49 77.955 74.4C77.0637 74.057 76.2214 73.598 75.45 73.035C76.185 72.795 76.575 73.26 77.025 73.455C77.4883 73.658 77.9391 73.8884 78.375 74.145L78.33 74.4Z" fill="black"/>
<path d="M55.845 125.22C54.8737 124.816 54.0365 124.145 53.43 123.285C54.3481 123.775 55.167 124.431 55.845 125.22Z" fill="black"/>
<path d="M81.945 38.715C81.81 39.51 81.21 39.315 80.82 39.45C80.3686 39.5933 79.9074 39.7036 79.44 39.78C79.92 40.17 80.64 39.78 81.105 40.41C80.91 40.5 80.76 40.65 80.61 40.65C79.3165 40.6699 78.0244 40.5543 76.755 40.305C76.2585 40.2325 75.7562 40.2074 75.255 40.23C74.9627 40.2026 74.6753 40.1371 74.4 40.035C74.3299 39.9984 74.2699 39.9449 74.2254 39.8795C74.1809 39.8141 74.1533 39.7387 74.145 39.66C74.1683 39.5808 74.2085 39.5075 74.2629 39.4454C74.3173 39.3832 74.3845 39.3336 74.46 39.3C74.6278 39.2615 74.8022 39.2615 74.97 39.3C76.7868 39.2828 78.5987 39.1071 80.385 38.775C80.9033 38.7232 81.4243 38.7032 81.945 38.715Z" fill="black"/>
<path d="M72.105 41.655C72.315 41.535 72.435 41.415 72.54 41.415L76.5 41.31C76.5946 41.2974 76.6904 41.2974 76.785 41.31C76.41 42 73.305 42.255 72.105 41.655Z" fill="black"/>
<path d="M82.32 15C82.252 14.8603 82.1968 14.7147 82.155 14.565C81.84 12.81 81.585 11.055 81.21 9.315C80.9868 8.23004 80.4676 7.22804 79.71 6.42C79.5192 6.22905 79.3436 6.02342 79.185 5.805C79.1293 5.66132 79.0988 5.50907 79.095 5.355C79.275 5.355 79.47 5.235 79.62 5.355C79.7952 5.43953 79.9491 5.5626 80.07 5.715C81.083 6.76394 81.7482 8.09953 81.975 9.54C82.245 11.16 82.44 12.78 82.65 14.4C82.6238 14.6052 82.5735 14.8066 82.5 15H82.32Z" fill="black"/>
</svg>
