<svg width="150" height="150" viewBox="0 0 150 150" fill="none" xmlns="http://www.w3.org/2000/svg">
<path d="M51.555 148.695C51.21 145.695 50.85 142.56 50.505 139.485C50.235 137.04 49.965 134.58 49.71 132.12C49.5524 130.289 49.1643 128.484 48.555 126.75C46.937 121.99 44.8203 117.415 42.24 113.1C39.825 109.14 37.65 105.015 35.295 101.025C33.795 98.52 32.295 96.075 30.615 93.66C27.0373 88.3453 23.8634 82.7696 21.12 76.98C20.61 75.93 19.995 74.925 19.515 73.845C18.9465 72.5673 18.4458 71.2605 18.015 69.93C17.7669 68.6222 17.839 67.2739 18.225 66C18.87 62.9483 19.9458 60.0038 21.42 57.255C24.09 52.035 26.85 46.845 29.55 41.64C30.78 39.255 31.95 36.855 33.12 34.455C33.2414 34.2081 33.2681 33.9253 33.195 33.66C32.4148 31.1463 32.0549 28.521 32.13 25.89C32.13 23.595 32.13 21.3 32.235 19.005C32.2863 17.7273 32.5922 16.4728 33.135 15.315C33.63 14.25 33.975 13.11 34.545 12.105C35.1788 10.9627 35.9331 9.89164 36.795 8.91C39.4349 5.65826 43.0373 3.32667 47.085 2.25C49.6354 1.61433 52.3136 1.71215 54.8108 2.53219C57.3081 3.35223 59.5229 4.86111 61.2 6.885C61.9393 7.84755 62.5871 8.87701 63.135 9.96L64.395 9.18C66.2771 7.97997 68.4488 7.31136 70.68 7.245C72.0306 7.27615 73.3759 7.42673 74.7 7.695C77.7055 8.26404 80.4733 9.71581 82.65 11.865C83.265 12.45 83.925 13.02 84.585 13.62L85.26 13.02C86.4604 11.8514 87.9381 11.007 89.5544 10.5662C91.1707 10.1254 92.8725 10.1026 94.5 10.5C97.5027 11.0683 100.284 12.472 102.525 14.55L105.195 16.95C106.099 17.7471 106.868 18.684 107.475 19.725C107.475 19.83 107.61 19.92 107.715 20.07C109.242 19.5019 110.876 19.2766 112.5 19.41C113.643 19.4996 114.776 19.6802 115.89 19.95C117.665 20.4661 119.26 21.469 120.495 22.845C121.905 24.345 123.27 25.77 124.665 27.225C126.307 29.0018 127.659 31.0267 128.67 33.225C130.21 36.4556 131.257 39.8989 131.775 43.44C132.245 46.3104 132.461 49.2167 132.42 52.125C132.31 54.9798 131.989 57.8226 131.46 60.63C131.025 63.21 130.74 65.835 130.425 68.43C130.11 71.025 129.75 74.01 129.42 76.785C129.09 79.56 128.88 82.02 128.55 84.615C128.25 86.97 127.965 89.325 127.485 91.65C126.255 97.455 125.265 103.335 123.495 109.005C121.946 114.268 120.877 119.66 120.3 125.115C119.97 127.77 119.895 130.455 119.685 133.125C119.415 136.32 119.13 139.515 118.86 142.725C118.695 144.735 118.575 146.745 118.44 148.725H116.025C116.19 146.22 116.34 143.73 116.535 141.225C116.685 139.14 116.91 137.07 117.045 134.985C117.225 132.3 117.24 129.615 117.54 126.96C117.9 123.615 118.485 120.3 119.04 116.97C119.771 113.245 120.692 109.56 121.8 105.93C122.565 102.93 123.225 99.81 123.87 96.75C124.545 93.45 125.19 90.15 125.76 86.835C126.045 85.2 126.105 83.535 126.3 81.9C126.615 79.23 126.945 76.575 127.26 73.92C127.575 71.265 127.815 69 128.145 66.555C128.55 63.555 129.015 60.555 129.435 57.555C129.881 54.3899 129.966 51.1844 129.69 48C129.462 44.9545 128.929 41.9394 128.1 39C127.031 35.0048 124.967 31.3459 122.1 28.365C120.93 27.21 119.79 25.995 118.665 24.78C117.697 23.7463 116.497 22.9582 115.164 22.4808C113.831 22.0034 112.404 21.8506 111 22.035C110.19 22.035 109.41 22.26 108.66 22.38C108.66 22.56 108.57 22.62 108.66 22.65C109.229 24.5316 110.134 26.295 111.33 27.855C112.275 28.89 113.34 29.805 114.33 30.78L114.795 31.185C115.035 31.41 115.185 31.68 114.975 31.995C114.884 32.1222 114.748 32.21 114.595 32.2406C114.442 32.2713 114.283 32.2425 114.15 32.16C113.778 31.9979 113.421 31.8021 113.085 31.575C112.665 31.29 112.29 30.945 111.87 30.645C109.831 29.1629 108.33 27.0566 107.595 24.645C107.436 24.0762 107.131 23.559 106.71 23.145C106.455 22.905 106.425 22.41 106.305 22.02C106.229 21.631 106.093 21.2564 105.9 20.91C105.345 20.1505 104.722 19.4426 104.04 18.795C102.885 17.745 101.67 16.785 100.47 15.795C98.131 13.8526 95.1854 12.7911 92.145 12.795C91.2374 12.78 90.3362 12.9491 89.4958 13.292C88.6554 13.6349 87.8931 14.1444 87.255 14.79C86.745 15.285 86.205 15.765 85.59 16.29C85.7098 18.2878 86.0776 20.263 86.685 22.17C87.2177 23.3746 88.068 24.4117 89.145 25.17L90.12 25.92C90.39 26.145 90.585 26.43 90.36 26.79C90.3172 26.8616 90.2602 26.9236 90.1926 26.9725C90.125 27.0214 90.0482 27.056 89.9668 27.0742C89.8855 27.0924 89.8012 27.0939 89.7193 27.0786C89.6373 27.0633 89.5593 27.0314 89.49 26.985C88.417 26.6042 87.4413 25.9913 86.6323 25.1902C85.8234 24.389 85.2012 23.4192 84.81 22.35C84.2407 20.4492 83.9181 18.4831 83.85 16.5C83.8602 16.2738 83.81 16.049 83.7046 15.8486C83.5991 15.6483 83.4422 15.4796 83.25 15.36C82.38 14.73 81.525 14.07 80.715 13.38C78.5087 11.4872 75.7875 10.2963 72.9 9.96C70.1699 9.55295 67.3893 10.2373 65.16 11.865L62.76 13.5C62.5597 13.6444 62.4206 13.8584 62.37 14.1C62.175 15.6 61.935 17.1 61.89 18.6C61.8726 19.7487 61.9833 20.8958 62.22 22.02C62.3898 22.7743 62.6517 23.5048 63 24.195C63.24 24.705 63.54 25.17 63.795 25.695C64.05 26.22 64.17 26.415 63.795 26.7C63.42 26.985 63.12 26.7 62.88 26.385C62.0106 25.5603 61.3146 24.5702 60.8329 23.4729C60.3513 22.3756 60.0936 21.1932 60.075 19.995C60.0416 18.1567 60.2127 16.3205 60.585 14.52C60.6633 14.33 60.6991 14.1253 60.69 13.92C60.6099 13.5936 60.5992 13.2541 60.6586 12.9234C60.7181 12.5926 60.8463 12.278 61.035 12C61.0949 11.8096 61.0949 11.6054 61.035 11.415C60.8017 10.3025 60.285 9.26914 59.535 8.415C57.7593 6.41869 55.4137 5.0155 52.815 4.395C51.3252 4.11042 49.7923 4.14108 48.315 4.485C46.1827 4.88698 44.1772 5.79205 42.465 7.125C39.2944 9.61267 36.8068 12.8641 35.235 16.575C34.9266 17.2479 34.768 17.9798 34.77 18.72C34.845 22.185 34.935 25.65 35.07 29.115C35.1583 29.9265 35.3138 30.7292 35.535 31.515C35.8727 32.5361 35.9297 33.6293 35.7 34.68C35.685 34.7845 35.685 34.8905 35.7 34.995C36.0063 37.6185 35.6022 40.2761 34.53 42.69C34.365 43.11 34.2 43.545 34.05 43.98C33.8723 44.464 33.7927 44.9785 33.8159 45.4936C33.8391 46.0086 33.9646 46.5139 34.185 46.98C34.425 47.49 34.665 47.985 34.89 48.48C35.0842 48.9392 35.1545 49.4412 35.0939 49.9361C35.0334 50.4309 34.8441 50.9012 34.545 51.3C34.4222 51.4936 34.2869 51.679 34.14 51.855C33.5843 52.4364 33.2545 53.197 33.21 54C33.21 55.77 33.12 57.525 33.06 59.28C33.0639 59.5865 33.0131 59.8913 32.91 60.18C32.8633 60.2645 32.7964 60.3361 32.7152 60.3885C32.6341 60.4408 32.5412 60.4722 32.445 60.48C32.295 60.48 32.13 60.285 32.01 60.135C31.89 59.985 32.01 59.895 31.935 59.775L31.62 54.885C31.4714 53.5019 31.8519 52.1139 32.685 51C32.96 50.6913 33.1253 50.3004 33.1551 49.888C33.185 49.4757 33.0777 49.0651 32.85 48.72C32.5485 48.1897 32.2974 47.6322 32.1 47.055C31.6327 45.6359 31.6967 44.0955 32.28 42.72C32.67 41.745 33.015 40.755 33.36 39.72C33.4146 39.5283 33.4547 39.3327 33.48 39.135C33.375 39.225 33.33 39.255 33.315 39.3C30.99 44.1 28.68 48.9 26.34 53.685C25.305 55.8 24.18 57.855 23.175 59.985C22.1464 62.0933 21.3807 64.32 20.895 66.615C20.6307 67.9612 20.6666 69.3492 21 70.68C21.4457 72.3817 22.106 74.0199 22.965 75.555C24.63 78.555 26.175 81.705 27.9 84.705C29.31 87.165 30.9 89.55 32.4 91.89C35.655 96.66 38.55 101.64 41.4 106.68C42.9 109.44 44.67 112.095 46.2 114.87C48.4769 118.979 50.2833 123.331 51.585 127.845C52.0328 129.623 52.3388 131.434 52.5 133.26C52.995 137.1 53.43 140.955 53.85 144.81C53.97 145.815 54 146.835 54.075 147.81C54.075 148.095 54.15 148.365 54.18 148.65L51.555 148.695Z" fill="black"/>
<path d="M126.63 51.825C126.521 55.1406 126.109 58.4393 125.4 61.68C124.62 65.655 123.9 69.63 123.12 73.68C122.55 76.56 121.875 79.425 121.38 82.305C120.885 85.185 120.54 87.735 120.195 90.465C119.985 92.115 119.895 93.765 119.745 95.415C119.758 95.5915 119.722 95.7682 119.64 95.925C119.587 95.989 119.52 96.0408 119.445 96.077C119.37 96.1132 119.288 96.133 119.205 96.135C119.1 96.135 118.965 95.97 118.92 95.85C118.89 95.7015 118.89 95.5485 118.92 95.4C118.947 91.5745 119.238 87.7555 119.79 83.97C120.3 79.935 121.29 76.02 122.085 71.97C123 67.23 123.975 62.49 124.845 57.72C125.412 54.4001 125.508 51.0167 125.13 47.67C124.945 45.6903 124.625 43.7256 124.17 41.79C123.973 40.8651 123.592 39.9897 123.048 39.2163C122.504 38.4429 121.809 37.7877 121.005 37.29C121.005 37.29 120.81 37.2 120.765 37.11C120.72 37.02 120.54 36.72 120.585 36.675C120.647 36.6045 120.723 36.548 120.808 36.5092C120.894 36.4704 120.986 36.4502 121.08 36.45C121.451 36.5387 121.805 36.6855 122.13 36.885C122.877 37.3338 123.527 37.9272 124.043 38.6303C124.558 39.3334 124.927 40.1323 125.13 40.98C125.58 42.5759 125.925 44.1993 126.165 45.84C126.39 47.79 126.465 49.815 126.63 51.825Z" fill="black"/>
<path d="M97.785 36.435C97.785 37.71 97.875 38.94 97.785 40.14C97.5 43.14 97.125 46.14 96.78 49.26C96.435 52.38 96.12 55.395 95.76 58.455C95.4 61.515 95.055 64.455 94.65 67.455C94.365 69.6 93.945 71.73 93.645 73.875C93.345 76.02 93.09 78.255 92.805 80.46C92.715 81.18 92.64 81.96 92.52 82.65C92.52 82.815 92.265 82.965 92.13 83.115C92.025 82.935 91.83 82.74 91.845 82.56C91.845 81.495 91.95 80.43 92.055 79.365C92.205 77.685 92.4 76.02 92.595 74.355L93.555 66L94.41 58.5C94.68 56.085 94.935 53.685 95.22 51.285C95.505 48.885 95.79 46.89 96.075 44.685C96.36 42.48 96.69 39.84 97.035 37.425C97.095 37.05 97.005 36.465 97.785 36.435Z" fill="black"/>
<path d="M68.4 96.66C68.2803 96.3977 68.1801 96.127 68.1 95.85C67.38 92.595 66.6 89.34 65.985 86.085C65.37 82.83 64.875 79.875 64.23 76.785C63.0252 71.3556 61.4873 66.0055 59.625 60.765C59.34 59.925 58.935 59.13 58.59 58.305C58.4887 58.13 58.4081 57.9437 58.35 57.75C58.35 57.555 58.35 57.255 58.455 57.165C58.56 57.075 58.95 57.165 59.085 57.36C59.3547 57.7649 59.5905 58.1913 59.79 58.635C60.54 60.525 61.29 62.4 61.98 64.335C63.2798 68.0144 64.3273 71.7781 65.115 75.6C65.625 78.165 65.985 80.76 66.45 83.34C67.11 86.97 67.815 90.585 68.505 94.215C68.61 94.815 68.76 95.4 68.835 96.015C68.8263 96.2327 68.7754 96.4467 68.685 96.645L68.4 96.66Z" fill="black"/>
<path d="M42.975 40.77C42.975 40.995 42.975 41.205 42.975 41.43C43.002 45.5198 43.9236 49.5541 45.675 53.25C47.3748 56.7307 48.8332 60.3242 50.04 64.005C50.58 65.79 50.97 67.605 51.45 69.405C52.05 71.58 52.665 73.755 53.28 75.945C53.355 76.23 53.565 76.605 53.16 76.71C52.755 76.815 52.74 76.365 52.65 76.095C51.45 72.36 50.355 68.595 49.05 64.905C48 61.71 46.65 58.59 45.375 55.5C44.1508 52.8673 43.2105 50.1118 42.57 47.28C42.2507 45.418 42.125 43.5279 42.195 41.64C42.21 40.89 42.36 40.755 42.975 40.77Z" fill="black"/>
<path d="M73.935 56.415C74.0586 56.5888 74.1641 56.7748 74.25 56.97C75.3375 60.8149 76.1644 64.7288 76.725 68.685C77.1 71.685 77.43 74.55 77.805 77.475C78.12 79.86 78.495 82.26 78.795 84.645C79.05 86.64 79.26 88.635 79.47 90.645C79.47 90.93 79.56 91.275 79.05 91.455C78.9416 91.2569 78.8609 91.045 78.81 90.825C78.525 88.725 78.27 86.595 77.955 84.495C77.595 81.975 77.175 79.47 76.785 76.995C76.08 72.3 75.39 67.59 74.64 62.895C74.37 61.185 73.95 59.505 73.635 57.795C73.5 57.33 73.29 56.835 73.935 56.415Z" fill="black"/>
<path d="M46.845 29.49C46.7747 30.4437 46.9008 31.4017 47.2156 32.3048C47.5303 33.2078 48.0271 34.0366 48.675 34.74C49.98 36.24 51.21 37.875 52.38 39.51C52.9012 40.2848 53.3244 41.1212 53.64 42C54.5256 44.2831 55.1984 46.6431 55.65 49.05C55.785 49.8 55.815 50.55 55.875 51.33C55.875 51.615 55.875 51.96 55.47 51.915C55.065 51.87 55.08 51.585 55.065 51.39C54.7537 48.9899 54.1648 46.6342 53.31 44.37C52.3471 41.7578 50.9077 39.347 49.065 37.26C48.435 36.48 47.805 35.76 47.205 34.92C46.2187 33.663 45.6897 32.1077 45.705 30.51C45.705 29.79 45.78 29.085 45.825 28.38C45.825 28.245 45.825 28.08 45.93 28.02C46.035 27.96 46.29 27.675 46.455 27.69C46.62 27.705 46.8 27.975 46.815 28.155C46.8548 28.5988 46.8648 29.0448 46.845 29.49Z" fill="black"/>
<path d="M60.33 130.665L64.68 130.92L69.42 131.175C71.91 131.34 74.4 131.46 76.92 131.685C77.9035 131.813 78.8762 132.013 79.83 132.285C80.004 132.317 80.1682 132.389 80.31 132.495C80.3592 132.546 80.3968 132.608 80.4201 132.675C80.4434 132.743 80.4519 132.814 80.445 132.885C80.4119 132.947 80.3649 133.002 80.3077 133.043C80.2505 133.085 80.1846 133.113 80.115 133.125C79.9153 133.14 79.7147 133.14 79.515 133.125C78.015 132.945 76.65 132.66 75.21 132.585C71.775 132.42 68.325 132.375 64.89 132.255C63.315 132.255 61.74 132.015 60.165 131.985C58.59 131.955 56.745 131.985 55.035 132.105C54.8614 132.136 54.6836 132.136 54.51 132.105C54.33 132.105 54.09 131.94 54.06 131.82C54.0593 131.723 54.0822 131.627 54.1266 131.541C54.171 131.455 54.2357 131.381 54.315 131.325C54.5034 131.202 54.7204 131.13 54.945 131.115L60.33 130.665Z" fill="black"/>
<path d="M30.075 78.18C30.2565 78.3541 30.4268 78.5395 30.585 78.735C31.935 81.135 33.3 83.52 34.62 85.92C35.415 87.345 36.12 88.815 36.9 90.255C39.28 94.845 41.675 99.43 44.085 104.01C44.19 104.205 44.34 104.385 44.43 104.595C44.52 104.805 44.43 104.925 44.43 104.985C44.3676 105.018 44.2981 105.035 44.2275 105.035C44.1569 105.035 44.0874 105.018 44.025 104.985C43.772 104.738 43.5503 104.461 43.365 104.16C42.555 102.66 41.79 101.16 40.995 99.78C39.705 97.44 38.4 95.115 37.125 92.76C36.435 91.485 35.835 90.15 35.16 88.875C33.66 86.07 32.16 83.28 30.66 80.475C30.3884 79.962 30.1528 79.4307 29.955 78.885C29.805 78.735 30 78.525 30.075 78.18Z" fill="black"/>
<path d="M57.525 112.08C57.42 111.315 57.3 110.58 57.195 109.77C56.79 106.875 56.4 103.98 55.995 101.085C55.575 97.95 55.17 94.83 54.72 91.695C54.48 90.015 54.195 88.335 53.925 86.655C53.835 86.13 53.76 85.59 53.7 85.065C53.7 84.945 53.7 84.78 53.7 84.69C53.8003 84.5405 53.9484 84.4294 54.12 84.375C54.12 84.375 54.405 84.57 54.42 84.72C54.66 85.965 54.9 87.21 55.08 88.47C55.51 91.37 55.925 94.265 56.325 97.155C56.685 99.9 57.03 102.66 57.36 105.405C57.585 107.145 57.795 108.885 57.99 110.64C58.0275 111.019 58.0275 111.401 57.99 111.78C57.99 111.915 57.81 112.035 57.705 112.155L57.525 112.08Z" fill="black"/>
<path d="M40.5 30.24C40.415 30.1846 40.3424 30.1121 40.2868 30.0273C40.2312 29.9424 40.1938 29.8469 40.1769 29.7469C40.16 29.6469 40.164 29.5444 40.1886 29.446C40.2132 29.3475 40.258 29.2553 40.32 29.175C40.7154 28.3825 41.1771 27.6248 41.7 26.91C42.825 25.53 44.04 24.225 45.255 22.92C45.6956 22.4402 46.2429 22.0708 46.8526 21.8415C47.4623 21.6122 48.1174 21.5295 48.765 21.6C50.801 21.6274 52.8221 21.9508 54.765 22.56C54.9573 22.6089 55.1399 22.6901 55.305 22.8C55.3672 22.8422 55.4139 22.9036 55.4379 22.9748C55.462 23.046 55.4622 23.1232 55.4384 23.1945C55.4147 23.2658 55.3682 23.3274 55.3063 23.3699C55.2443 23.4124 55.1701 23.4335 55.095 23.43C54.8461 23.4017 54.6001 23.3515 54.36 23.28C52.3582 22.7663 50.2865 22.5789 48.225 22.725C47.7442 22.7697 47.2837 22.9405 46.89 23.22C46.2073 23.6953 45.5741 24.238 45 24.84C43.5684 26.2921 42.2683 27.8683 41.115 29.55C40.9311 29.7979 40.7252 30.0289 40.5 30.24Z" fill="black"/>
<path d="M74.52 19.815C73.5515 19.846 72.6152 20.1703 71.835 20.745C70.3662 21.761 69.1165 23.0618 68.16 24.57C68.01 24.825 67.815 25.11 67.515 24.9C67.4105 24.8217 67.3261 24.7196 67.2687 24.6023C67.2113 24.4849 67.1826 24.3556 67.185 24.225C67.2736 23.8017 67.4527 23.4026 67.71 23.055C68.7005 21.6546 69.9414 20.4494 71.37 19.5C72.1366 18.9891 73.0443 18.732 73.965 18.765C75.4711 18.8243 76.9415 19.2408 78.255 19.98C78.42 20.07 78.495 20.31 78.6 20.475C78.42 20.55 78.21 20.715 78.045 20.7C77.7254 20.6209 77.41 20.5258 77.1 20.415L74.52 19.815Z" fill="black"/>
<path d="M114.105 127.035C114.076 126.866 114.076 126.694 114.105 126.525C114.633 124.354 114.97 122.14 115.11 119.91C115.32 117.405 115.53 114.885 115.725 112.41C115.845 110.91 115.875 109.41 116.04 108C116.16 106.86 116.415 105.75 116.625 104.625C116.625 104.325 116.805 104.04 117.285 104.115C117.18 104.835 117.09 105.51 117.015 106.17C116.91 107.13 116.805 108.09 116.73 109.065C116.565 111.285 116.445 113.565 116.235 115.755C116.003 118.974 115.597 122.179 115.02 125.355C114.943 125.752 114.838 126.143 114.705 126.525C114.626 126.725 114.525 126.916 114.405 127.095L114.105 127.035Z" fill="black"/>
<path d="M27.375 75C27.0202 74.6358 26.6942 74.2446 26.4 73.83C25.62 72.57 24.9 71.31 24.165 70.005C23.9016 69.5204 23.7393 68.9874 23.6877 68.4382C23.6361 67.8891 23.6964 67.3352 23.865 66.81C24.03 66.21 24.21 65.595 24.42 64.995C24.825 63.705 25.245 62.43 25.695 61.155C25.8248 60.7439 25.9956 60.3469 26.205 59.97C26.445 59.58 26.61 59.61 27.045 59.97C26.295 62.355 25.545 64.755 24.78 67.14C24.6471 67.5296 24.5959 67.9425 24.6294 68.3528C24.663 68.7631 24.7806 69.1621 24.975 69.525C25.785 71.025 26.64 72.525 27.495 74.025C27.66 74.325 27.915 74.565 27.375 75Z" fill="black"/>
<path d="M104.115 27.69C103.916 27.8361 103.699 27.957 103.47 28.05C103.38 28.05 103.23 27.975 103.14 27.9C102.084 27.0964 100.858 26.5471 99.555 26.295C98.8367 26.0935 98.0718 26.1357 97.38 26.415C96.3098 26.8034 95.3299 27.4056 94.5 28.185C94.3524 28.3586 94.1806 28.5101 93.99 28.635C93.81 28.725 93.51 28.77 93.39 28.635C93.3265 28.5532 93.2826 28.4579 93.2618 28.3565C93.241 28.255 93.2438 28.1502 93.27 28.05C93.4356 27.704 93.6531 27.3853 93.915 27.105C94.9017 26.1047 96.1404 25.3895 97.5 25.035C97.9456 24.9204 98.4095 24.8949 98.865 24.96C100.289 25.2288 101.649 25.7686 102.87 26.55C103.319 26.8908 103.736 27.2724 104.115 27.69Z" fill="black"/>
<path d="M53.4 7.19999C53.1545 7.2775 52.9039 7.33765 52.65 7.37999C50.73 7.61999 48.81 7.82999 46.89 8.08499C45.945 8.20499 45 8.42999 44.04 8.57999C43.905 8.57999 43.62 8.57999 43.605 8.42999C43.59 8.27999 43.605 7.96499 43.695 7.88999C44.0363 7.63432 44.4232 7.44597 44.835 7.33499C45.855 7.13999 46.89 7.00499 47.94 6.89999C49.44 6.76499 50.835 6.65999 52.275 6.55499C52.4794 6.53233 52.6856 6.53233 52.89 6.55499C53.16 6.62999 53.445 6.70499 53.4 7.19999Z" fill="black"/>
<path d="M85.86 136.875C85.485 137.31 85.005 137.19 84.57 137.19H77.91H75.855C75.7306 137.207 75.6044 137.207 75.48 137.19C75.2973 137.072 75.1265 136.936 74.97 136.785C75.12 136.635 75.255 136.38 75.42 136.35C75.8739 136.305 76.3311 136.305 76.785 136.35L79.305 136.44L84.885 136.62C85.245 136.5 85.665 136.395 85.86 136.875Z" fill="black"/>
<path d="M75.48 32.295C75.735 30.435 75.975 28.575 76.245 26.715C76.2578 26.4852 76.3416 26.265 76.485 26.085C76.6644 25.9335 76.8958 25.8582 77.13 25.875C77.25 25.875 77.4 26.235 77.385 26.415C77.265 27.345 77.07 28.275 76.935 29.205C76.8 30.135 76.635 31.455 76.545 32.595C76.5467 33.0756 76.6071 33.5541 76.725 34.02C76.725 34.245 76.875 34.515 76.59 34.59C76.4858 34.5916 76.3824 34.5711 76.2867 34.5297C76.191 34.4883 76.1052 34.4271 76.035 34.35C75.6638 33.7294 75.4717 33.0181 75.48 32.295Z" fill="black"/>
<path d="M91.68 92.7C91.425 94.035 91.14 95.25 90.975 96.465C90.675 98.58 90.45 100.695 90.21 102.81C90.12 103.65 90.09 104.475 90.03 105.315C90.03 105.57 90.03 105.84 89.52 105.81C89.52 105.54 89.52 105.285 89.52 105.015C89.61 103.68 89.7 102.33 89.805 100.995C89.91 99.66 90.045 98.31 90.195 96.975C90.3 96.045 90.42 95.115 90.585 94.185C90.6533 93.7627 90.7847 93.3531 90.975 92.97C91.11 92.67 91.395 92.445 91.68 92.7Z" fill="black"/>
<path d="M70.83 12.285C70.826 12.207 70.84 12.129 70.8709 12.0573C70.9018 11.9855 70.9488 11.9218 71.0082 11.871C71.0676 11.8203 71.1379 11.7839 71.2137 11.7647C71.2894 11.7454 71.3685 11.7438 71.445 11.76C72.0526 11.7715 72.6588 11.8216 73.26 11.91C75.2425 12.2286 77.1678 12.835 78.975 13.71C79.4362 13.9357 79.8821 14.1912 80.31 14.475C80.4832 14.6219 80.6392 14.7879 80.775 14.97L80.685 15.15C80.535 15.15 80.355 15.15 80.25 15.15C78.0371 13.8928 75.6117 13.0538 73.095 12.675C72.5439 12.5805 71.9881 12.5154 71.43 12.48C71.22 12.39 71.025 12.33 70.83 12.285Z" fill="black"/>
<path d="M113.31 23.7C113.985 23.88 114.66 24.015 115.305 24.255C115.95 24.495 116.985 24.96 117.81 25.35C117.975 25.44 118.05 25.68 118.17 25.86C117.945 25.86 117.705 26.085 117.51 26.04C117.015 25.92 116.565 25.665 116.01 25.545C115.455 25.425 114.72 25.29 114.075 25.155L113.58 25.035C113.31 25.035 113.055 24.96 112.785 24.945C112.586 24.9673 112.384 24.9673 112.185 24.945C112.094 24.9268 112.008 24.8893 111.933 24.8349C111.858 24.7806 111.796 24.7107 111.75 24.63C111.737 24.5355 111.748 24.4392 111.782 24.3501C111.817 24.261 111.872 24.1819 111.945 24.12C112.391 23.9509 112.846 23.8106 113.31 23.7Z" fill="black"/>
<path d="M92.475 129.765C89.7761 129.687 87.0853 129.432 84.42 129C84.63 128.4 85.005 128.46 85.35 128.505C86.37 128.655 87.405 128.835 88.425 128.97L92.055 129.405C92.213 129.433 92.3685 129.473 92.52 129.525L92.475 129.765Z" fill="black"/>
<path d="M34.875 69.15C34.755 69.045 34.575 68.97 34.515 68.835C33.96 67.335 33.405 65.835 32.88 64.335C32.8348 64.0116 32.8348 63.6834 32.88 63.36C33.255 63.135 33.48 63.36 33.51 63.63C33.8051 65.3063 34.3091 66.939 35.01 68.49C35.01 68.67 35.1 68.865 35.145 69.06L34.875 69.15Z" fill="black"/>
<path d="M91.5 15.15C91.395 14.685 91.71 14.565 91.965 14.535C93.1969 14.3413 94.4583 14.4918 95.61 14.97L95.775 15.135C95.64 15.63 95.295 15.36 95.055 15.33C94.35 15.255 93.66 15.135 92.955 15.06C92.6785 15.0633 92.4026 15.0884 92.13 15.135L91.5 15.15Z" fill="black"/>
<path d="M46.215 10.575C46.215 10.05 46.485 10.005 46.77 9.915C48.57 9.375 49.665 9.315 50.25 9.795C50.1684 9.85882 50.0773 9.90943 49.98 9.945L46.215 10.575Z" fill="black"/>
</svg>
