<svg width="150" height="150" viewBox="0 0 150 150" fill="none" xmlns="http://www.w3.org/2000/svg">
<path d="M60 148.665C59.82 146.73 59.61 144.78 59.49 142.83C59.468 142.053 59.5131 141.275 59.625 140.505C59.811 137.67 59.7558 134.825 59.46 132C59.34 130.65 59.28 129.285 59.13 127.95C58.935 126.21 58.635 124.47 58.425 122.73C58.215 120.99 58.215 119.625 58.005 118.08C57.645 115.335 57.63 112.59 57.51 109.83C57.3593 108.208 57.119 106.595 56.79 105C56.595 103.605 56.4 102.225 56.19 100.83C56.01 99.72 55.89 98.595 55.605 97.5C55.0756 95.0218 54.6701 92.5186 54.39 90C53.9062 86.5217 53.6906 83.0114 53.745 79.5C53.745 77.25 53.46 75 53.25 72.75C53.1282 71.205 52.9229 69.6678 52.635 68.145C51.8568 64.414 50.809 60.7444 49.5 57.165C48.975 55.665 48.45 54.165 48 52.77C47.595 51.615 47.235 50.445 46.86 49.275C46.35 47.655 45.84 46.02 45.36 44.4C45.075 43.44 44.82 42.465 44.565 41.49C44.205 40.14 43.92 38.76 43.485 37.425C42.915 35.76 42.6 34.035 42.195 32.325C41.715 30.255 41.01 28.23 40.575 26.145C40.02 23.535 39.6 20.88 39.21 18.225C39.1225 17.4659 39.2124 16.6969 39.4727 15.9784C39.733 15.26 40.1565 14.6118 40.71 14.085C41.4064 13.334 42.3571 12.869 43.3774 12.7802C44.3977 12.6915 45.4145 12.9855 46.23 13.605C47.3273 14.4111 48.2127 15.4714 48.81 16.695C49.2226 17.6107 49.5881 18.5469 49.905 19.5C50.835 22.02 51.705 24.555 52.59 27.09C52.695 27.39 52.77 27.69 52.845 27.96C51.765 27.96 50.775 27.96 49.845 27.96C49.1713 27.9971 48.5002 28.0722 47.835 28.185C46.7039 28.3627 45.6558 28.8868 44.835 29.685C44.28 30.195 43.695 30.675 43.17 31.185C42.9086 31.4545 42.691 31.7632 42.525 32.1C42.435 32.25 42.525 32.49 42.525 32.685C42.7001 32.6347 42.8669 32.5588 43.02 32.46C43.635 31.92 44.205 31.32 44.82 30.78C46.1933 29.6177 47.9262 28.9659 49.725 28.935C50.6042 28.8826 51.4858 28.8826 52.365 28.935C53.22 28.935 53.235 29.055 53.505 29.835C54.84 33.675 55.8 37.635 57.36 41.4C57.735 42.315 58.005 43.275 58.365 44.295C57.8628 44.2812 57.3604 44.3164 56.865 44.4C56.1069 44.5554 55.3677 44.7918 54.66 45.105C52.965 45.93 51.315 46.845 49.665 47.745C49.38 47.91 48.945 48.03 48.975 48.525C49.275 48.81 49.545 48.615 49.8 48.525L54.48 46.2C55.5879 45.6015 56.8212 45.2726 58.08 45.24H58.59C59.325 47.1 60.21 48.915 60.78 50.82C61.7909 54.1711 63.3084 57.3479 65.28 60.24C65.2885 60.3047 65.2885 60.3703 65.28 60.435C61.32 61.44 58.455 64.215 55.32 66.555C55.32 66.555 55.32 66.78 55.245 66.885C55.62 67.185 55.845 66.885 56.07 66.735C57.165 65.985 58.23 65.235 59.34 64.455C60.4594 63.6944 61.6213 62.9982 62.82 62.37C63.7681 62.0112 64.7406 61.7204 65.73 61.5C65.8821 61.4464 66.0465 61.4376 66.2034 61.4749C66.3603 61.5121 66.5032 61.5937 66.615 61.71C67.3718 62.3378 68.2502 62.8025 69.195 63.075C69.4343 63.1708 69.6912 63.215 69.9487 63.2046C70.2063 63.1943 70.4587 63.1296 70.6895 63.0149C70.9204 62.9002 71.1244 62.738 71.2882 62.539C71.452 62.34 71.5719 62.1086 71.64 61.86C72.2351 60.0744 72.5489 58.2071 72.57 56.325C72.57 54.645 72.855 52.98 72.96 51.3C72.96 50.205 72.96 49.095 73.095 48C73.245 45.855 73.44 43.71 73.635 41.505C73.9526 41.4474 74.2731 41.4074 74.595 41.385H76.62C76.875 41.385 77.175 41.385 77.19 41.04C77.205 40.695 76.905 40.575 76.62 40.59C75.945 40.59 75.27 40.665 74.58 40.695C74.325 40.695 74.04 40.695 73.74 40.695C73.74 39.69 73.74 38.745 73.74 37.815C73.86 36.615 74.115 35.43 74.28 34.245C74.49 32.625 74.595 30.99 74.88 29.385C75.45 26.175 75.57 22.905 75.975 19.68C76.38 16.455 76.965 13.44 77.64 10.35C77.9887 8.3495 79.0037 6.5257 80.52 5.17501C80.8589 4.88013 81.2256 4.6189 81.615 4.39501C81.929 4.20309 82.2823 4.08453 82.6485 4.04817C83.0147 4.01181 83.3844 4.05858 83.73 4.18501C86.325 5.11501 87 6.18001 87.45 9.00001C87.5251 9.8734 87.5251 10.7516 87.45 11.625C87.45 13.86 87.375 16.125 87.285 18.33C87.285 19.47 87.12 20.61 87.015 21.855H84.42C83.5656 21.9001 82.7094 21.9001 81.855 21.855C81.015 21.75 80.205 21.435 79.38 21.3C78.555 21.165 77.88 20.49 76.995 20.58C76.9937 20.7605 77.0539 20.9361 77.1657 21.0779C77.2775 21.2196 77.4342 21.3191 77.61 21.36C78.81 21.81 79.995 22.245 81.21 22.635C82.182 22.9241 83.202 23.0159 84.21 22.905C85.11 22.83 86.01 22.905 87.015 22.905C86.565 29.43 85.665 35.91 85.605 42.525C85.155 42.525 84.765 42.525 84.36 42.525C82.965 42.45 81.555 42.39 80.175 42.24C79.23 42.135 78.315 41.865 77.385 41.67C77.28 41.67 77.175 41.565 77.1 41.67C76.9229 41.7074 76.7514 41.768 76.59 41.85C76.59 42.015 76.665 42.24 76.8 42.345C77.0629 42.5377 77.3504 42.6941 77.655 42.81C79.0929 43.368 80.6138 43.6823 82.155 43.74H85.5C85.5 49.11 84.63 54.39 85.14 59.73C83.2227 60.1345 81.2537 60.2358 79.305 60.03C78.24 59.88 77.205 59.595 76.14 59.4C76.0409 59.3813 75.9389 59.3837 75.8407 59.4069C75.7425 59.4302 75.6503 59.4738 75.57 59.535C75.345 59.82 75.57 59.985 75.84 60.12C75.9888 60.2206 76.1502 60.3013 76.32 60.36C78.1916 61.0901 80.1922 61.432 82.2 61.365C82.965 61.275 83.7 61.11 84.495 60.99H85.2C85.5299 64.0977 86.611 67.0784 88.35 69.675C88.0991 71.2676 87.6869 72.8307 87.12 74.34C87.0238 74.596 86.8637 74.8232 86.655 75C84.9182 76.4443 83.2749 77.9974 81.735 79.65L81.135 80.205C81.045 80.01 80.97 79.875 80.91 79.725C80.61 79.125 80.355 78.495 80.025 77.91C79.508 77.0487 79.1427 76.105 78.945 75.12C78.72 74.115 78.285 73.14 77.955 72.12C77.8651 71.9155 77.8093 71.6976 77.79 71.475C77.79 70.515 77.79 69.57 77.88 68.61C77.8792 68.3967 77.805 68.1901 77.67 68.025C77.3213 68.943 77.173 69.925 77.235 70.905L76.395 69.675C75.96 69.015 75.525 68.34 75.06 67.68C75.0057 67.6075 74.9356 67.5482 74.8551 67.5066C74.7745 67.4651 74.6856 67.4423 74.595 67.44C74.295 67.545 74.4 67.8 74.52 67.995C75.045 68.91 75.555 69.84 76.125 70.71C77.1614 72.3177 77.8605 74.1191 78.18 76.005C78.416 76.7905 78.7433 77.5457 79.155 78.255L80.205 80.505C80.2777 80.6518 80.3023 80.8177 80.2753 80.9792C80.2484 81.1408 80.1713 81.2897 80.055 81.405L75.39 86.715C75.3 86.805 75.195 86.865 75.045 86.985C74.8794 86.892 74.7278 86.7758 74.595 86.64C72.555 84.315 70.53 82.005 68.595 79.65C67.995 78.945 67.515 78.15 66.975 77.385C66.8809 77.2071 66.7594 77.0452 66.615 76.905C66.525 76.815 66.3 76.74 66.24 76.8C66.1808 76.8555 66.1341 76.923 66.103 76.9981C66.072 77.0731 66.0573 77.1539 66.06 77.235C66.1096 77.4039 66.1911 77.5617 66.3 77.7C67.4438 79.7607 68.8067 81.6919 70.365 83.46C71.655 84.96 72.93 86.355 74.25 87.87C73.98 88.185 73.695 88.56 73.38 88.905C73.065 89.25 72.54 89.835 72.12 90.3C71.996 90.4766 71.8145 90.6046 71.6065 90.6621C71.3986 90.7195 71.1771 90.7029 70.98 90.615L67.17 88.845L66.39 88.545C66.27 89.085 66.6 89.205 66.84 89.325C68.205 90.075 69.57 90.825 70.995 91.56L70.05 92.625C69.675 93.03 69.27 93.405 68.895 93.81C68.7484 94.0092 68.6179 94.2199 68.505 94.44C69.03 94.62 69.225 94.32 69.435 94.11C70.29 93.285 71.115 92.445 71.97 91.635C73.47 90.135 75.06 88.845 76.47 87.375C77.88 85.905 78.885 84.675 80.13 83.37C82.6166 80.3148 85.4226 77.534 88.5 75.075C90.2171 73.9366 92.0347 72.9575 93.93 72.15C93.9802 72.121 94.0371 72.1058 94.095 72.1058C94.1529 72.1058 94.2099 72.121 94.26 72.15C94.02 72.36 93.765 72.555 93.54 72.765C92.82 73.47 92.04 74.145 91.41 74.88C91.057 75.2598 90.7962 75.7158 90.648 76.2127C90.4997 76.7095 90.4679 77.2339 90.555 77.745C90.6646 78.838 91.0806 79.8779 91.755 80.745C92.19 81.3 92.58 81.885 93.045 82.41C93.5025 82.9484 94.0766 83.3754 94.7238 83.6587C95.3709 83.942 96.0742 84.0741 96.78 84.045C99.01 83.9423 101.115 82.9864 102.66 81.375C103.155 80.91 103.575 80.355 104.025 79.875L104.19 80.01C104.197 80.0597 104.197 80.1103 104.19 80.16C103.275 81.8345 102.173 83.3995 100.905 84.825C97.5934 88.3971 93.9411 91.6374 90 94.5C88.5911 95.5257 87.2391 96.6273 85.95 97.8C84.9723 98.7192 84.2709 99.8934 83.925 101.19C83.5298 102.438 82.8285 103.567 81.885 104.475C81.66 104.685 81.24 104.88 81.555 105.255C81.87 105.63 82.14 105.255 82.41 105.12L82.845 104.88C82.123 106.612 81.0087 108.152 79.59 109.38C78.3261 110.751 76.7946 111.849 75.09 112.605V112.815C75.27 112.815 75.465 113.01 75.6 112.965C76.0359 112.851 76.4546 112.68 76.845 112.455C79.021 111.05 80.9601 109.308 82.59 107.295C83.3854 106.168 83.8996 104.866 84.09 103.5C84.1773 103.051 84.3966 102.638 84.72 102.315C84.6396 104.946 83.9243 107.52 82.635 109.815C81.375 112.048 79.7759 114.072 77.895 115.815C78 116.265 78.285 116.205 78.54 116.07C78.8883 115.932 79.2123 115.74 79.5 115.5C80.91 113.85 82.41 112.245 83.685 110.475C85.0653 108.447 85.8166 106.058 85.845 103.605C85.8234 103.486 85.8234 103.364 85.845 103.245C86.16 104.024 86.2635 104.873 86.145 105.705C86.0403 106.404 86.102 107.119 86.325 107.79C86.535 108.39 86.19 108.945 86.115 109.515C85.5376 112.67 84.0639 115.591 81.87 117.93C81.165 118.74 80.37 119.52 79.695 120.315C79.5753 120.473 79.4746 120.644 79.395 120.825L79.56 121.005C79.8021 120.886 80.0331 120.745 80.25 120.585C81.465 119.25 82.665 117.9 83.865 116.55C85.2509 114.961 86.2246 113.055 86.7 111C86.85 110.4 86.895 109.77 87.045 109.155C88.365 112.065 89.655 114.99 89.385 118.395C88.89 118.185 88.71 118.395 88.62 118.905C88.305 120.405 88.005 122.01 87.6 123.525C87.4027 124.395 87.0739 125.229 86.625 126C85.635 127.59 84.51 129.105 83.445 130.65C83.28 130.905 82.965 131.145 83.445 131.505C83.67 131.28 83.91 131.07 84.12 130.845C85.5822 129.151 86.8735 127.318 87.975 125.37C88.4985 124.345 88.8482 123.24 89.01 122.1C89.145 121.485 89.235 120.87 89.385 120.255C89.6473 121.532 89.6473 122.848 89.385 124.125C89.0418 125.695 88.4814 127.21 87.72 128.625C87.6909 128.693 87.6557 128.758 87.615 128.82C87.48 129.105 87.36 129.42 87.72 129.6C88.08 129.78 88.215 129.6 88.395 129.3C89.1277 128.295 89.6995 127.181 90.09 126C90.2165 125.632 90.3931 125.284 90.615 124.965C90.615 125.475 90.615 125.97 90.615 126.465C90.5934 126.765 90.5934 127.065 90.615 127.365C90.6675 127.561 90.7593 127.745 90.885 127.905C91.02 127.74 91.23 127.605 91.275 127.425C91.4184 126.935 91.5188 126.433 91.575 125.925C91.575 125.235 91.575 124.53 91.575 123.825C91.5782 123.651 91.5477 123.478 91.485 123.315C91.1789 122.628 91.05 121.875 91.11 121.125C91.11 119.235 91.005 117.36 90.81 115.485C90.6273 114.4 90.341 113.335 89.955 112.305C89.4831 110.772 88.839 109.298 88.035 107.91C87.7834 107.505 87.6532 107.037 87.66 106.56C87.8134 104.62 87.4184 102.676 86.52 100.95C86.3501 100.67 86.2927 100.337 86.3596 100.016C86.4264 99.6962 86.6125 99.4133 86.88 99.225L89.76 96.63L89.88 96.72C89.745 97.335 89.58 97.92 89.475 98.535C89.317 99.1444 89.2861 99.7799 89.3842 100.402C89.4822 101.024 89.7072 101.619 90.045 102.15C90.3914 102.73 90.8962 103.198 91.5 103.5C92.1506 103.886 92.8858 104.107 93.6414 104.144C94.3971 104.18 95.1502 104.031 95.835 103.71C96.4997 103.362 97.1193 102.934 97.68 102.435C99.015 101.145 100.26 99.78 101.58 98.415C103.455 99.4656 105.582 99.9842 107.73 99.915C107.73 100.41 107.595 100.86 107.52 101.325C106.86 104.685 106.23 108.06 105.54 111.435C105.341 112.311 105.07 113.169 104.73 114C104.085 115.71 103.395 117.405 102.705 119.13C102 117.795 101.325 116.475 100.605 115.17C99.9946 113.857 99.2667 112.602 98.43 111.42H98.205C98.2119 111.608 98.2421 111.794 98.295 111.975L101.295 118.08C101.475 118.44 101.64 118.8 101.835 119.16C102.03 119.52 102.165 119.61 102.405 119.94L101.01 123.3C100.455 124.665 99.87 126.015 99.36 127.41C98.76 129.09 98.19 130.77 97.68 132.48C97.17 134.19 96.825 135.48 96.45 136.98C96.36 137.415 96.165 137.58 95.76 137.595C93.4324 137.836 91.0807 137.533 88.89 136.71C87.8887 136.311 86.8613 135.98 85.815 135.72C83.94 135.165 82.05 134.655 80.175 134.115C79.987 134.047 79.7899 134.006 79.59 133.995C79.5098 134.01 79.4336 134.042 79.3664 134.089C79.2993 134.135 79.2426 134.195 79.2 134.265C79.2 134.265 79.2 134.565 79.35 134.64C79.526 134.777 79.7238 134.883 79.935 134.955C80.97 135.33 82.005 135.72 83.055 136.065C85.545 136.905 88.05 137.745 90.45 138.69C90.645 138.9 90.795 139.2 91.035 139.29C92.2472 139.763 93.5297 140.032 94.83 140.085C95.085 140.085 95.46 140.19 95.475 139.635L91.74 139.005V138.9H96.195C96.195 139.53 96.09 140.145 96.045 140.76C96.045 141.63 95.91 142.515 95.895 143.385C95.9214 143.562 95.8783 143.741 95.7748 143.887C95.6713 144.032 95.5155 144.132 95.34 144.165C94.29 144.39 93.255 144.645 92.19 144.81C91.125 144.975 90.06 145.035 88.98 145.17C88.7479 145.207 88.5212 145.273 88.305 145.365V145.575C88.486 145.682 88.6838 145.758 88.89 145.8C89.64 145.8 90.39 145.8 91.14 145.65C92.36 145.51 93.575 145.36 94.785 145.2C95.1313 145.123 95.472 145.022 95.805 144.9V148.47H98.205C98.205 146.55 98.355 144.615 98.415 142.68C98.4247 140.345 98.676 138.018 99.165 135.735C99.413 134.72 99.7134 133.719 100.065 132.735C100.95 130.155 101.85 127.56 102.81 125.01C103.77 122.46 104.91 119.535 106.02 116.82C106.96 114.627 107.659 112.339 108.105 109.995C108.75 106.53 109.38 103.05 109.935 99.495C110.16 98.085 110.175 96.645 110.295 95.22C110.49 92.82 110.67 90.42 110.94 88.035C111.053 87.2894 111.28 86.5658 111.615 85.89C112.652 83.705 113.052 81.272 112.77 78.87C112.535 76.7456 111.915 74.6819 110.94 72.78C110.612 72.0789 110.145 71.4516 109.567 70.936C108.99 70.4204 108.314 70.0271 107.58 69.78L104.22 68.535C104.22 68.355 104.34 68.145 104.415 67.935C105.316 65.2216 105.959 62.4292 106.335 59.595C106.485 58.4144 106.33 57.215 105.883 56.1118C105.437 55.0086 104.714 54.0386 103.785 53.295C101.903 51.6315 99.5255 50.635 97.02 50.46C95.9893 50.3156 94.939 50.4844 94.0055 50.9445C93.072 51.4045 92.2983 52.1347 91.785 53.04C90.3175 55.2856 89.0093 57.6313 87.87 60.06C87.87 60.225 87.72 60.375 87.6 60.63C87.5355 60.5043 87.4803 60.3739 87.435 60.24C87.315 58.44 87.075 56.64 87.12 54.84C87.21 51.18 87.48 47.52 87.645 43.86C87.645 42.795 87.645 41.715 87.645 40.635C87.75 38.55 87.885 36.48 88.02 34.395C88.11 32.895 88.215 31.395 88.335 29.97C88.5 28.125 88.71 26.28 88.86 24.435C89.01 22.59 89.19 20.385 89.28 18.36C89.37 16.335 89.46 14.175 89.505 12C89.505 10.86 89.505 9.69001 89.505 8.55001C89.4395 7.03547 88.9165 5.57635 88.005 4.36501C87.0522 3.21347 85.7698 2.38118 84.33 1.98001C83.4769 1.74708 82.5779 1.73934 81.7208 1.95754C80.8638 2.17575 80.0779 2.61245 79.44 3.22501C78.311 4.11869 77.4069 5.26425 76.8 6.57001C75.9579 8.39535 75.353 10.321 75 12.3C74.655 14.28 74.31 16.26 74.055 18.3C73.8 20.34 73.71 22.095 73.5 23.985C73.29 25.875 73.02 27.57 72.78 29.355C72.675 30.255 72.615 31.155 72.495 32.04C72.255 33.855 71.985 35.67 71.745 37.485C71.6704 37.9057 71.6402 38.333 71.655 38.76C71.6854 41.04 71.5197 43.3184 71.16 45.57C71.0609 46.376 71.0258 47.1885 71.055 48C71.0498 49.5043 70.9546 51.007 70.77 52.5C70.56 54.18 70.53 55.89 70.455 57.6C70.3607 58.7276 70.1547 59.8431 69.84 60.93C68.885 60.724 68.013 60.2384 67.335 59.535C66.9584 59.2024 66.6302 58.8186 66.36 58.395C64.9431 56.2037 63.8138 53.8394 63 51.36C62.52 49.755 61.83 48.225 61.23 46.65C61.095 46.305 60.915 45.96 60.795 45.615C59.52 41.94 58.245 38.265 57 34.59C55.35 29.67 53.76 24.72 52.095 19.815C51.6257 18.5134 51.09 17.2368 50.49 15.99C49.717 14.3893 48.5443 13.0151 47.085 12C46.3758 11.4425 45.5528 11.0474 44.6742 10.8426C43.7955 10.6379 42.8827 10.6284 42 10.815C41.1945 11.0345 40.4411 11.413 39.7842 11.9282C39.1272 12.4435 38.5801 13.085 38.175 13.815C37.164 15.3149 36.7767 17.1494 37.095 18.93C37.575 21.93 38.025 24.93 38.745 27.93C39.36 30.435 40.065 32.91 40.56 35.43C40.755 36.435 41.16 37.395 41.445 38.43C41.73 39.465 42.015 40.77 42.345 41.925C42.81 43.53 43.29 45.135 43.845 46.74C44.085 47.535 44.325 48.33 44.595 49.11C45.15 50.82 45.705 52.545 46.305 54.24C47.9249 58.562 49.2922 62.9744 50.4 67.455C50.8367 69.6135 51.1323 71.7981 51.285 73.995C51.585 77.16 51.54 80.31 51.645 83.475C51.735 85.965 52.14 88.455 52.41 90.975C52.545 92.295 52.665 93.63 52.89 94.935C53.175 96.645 53.61 98.325 53.91 100.02C54.15 101.43 54.24 102.855 54.45 104.28C54.5203 105.026 54.6355 105.768 54.795 106.5C55.2186 108.41 55.405 110.365 55.35 112.32C55.3595 114.502 55.5048 116.681 55.785 118.845C55.98 120.495 56.07 122.145 56.265 123.795C56.46 125.445 56.775 127.215 57 129C57.4672 132.686 57.5827 136.407 57.345 140.115C57.2042 142.489 57.3047 144.871 57.645 147.225C57.645 147.735 57.645 148.23 57.72 148.725L60 148.665ZM90.165 61.785C89.685 61.665 89.64 62.01 89.58 62.295C89.37 63.345 89.16 64.41 88.965 65.46C88.83 66.225 88.74 66.96 88.605 67.92L87.225 65.235C87.6032 64.7305 87.9442 64.1991 88.245 63.645C89.3353 61.1119 90.5879 58.6518 91.995 56.28C92.5494 55.3519 93.1764 54.4692 93.87 53.64C94.2166 53.2515 94.6708 52.9747 95.175 52.845C96.1167 52.5451 97.1283 52.5451 98.07 52.845C99.1011 53.1807 100.104 53.597 101.07 54.09C101.783 54.5511 102.446 55.0838 103.05 55.68C103.235 55.899 103.392 56.141 103.515 56.4C103.27 56.4155 103.025 56.4155 102.78 56.4L99.975 55.89C99.705 55.89 99.45 55.725 99.255 56.16C99.4572 56.2934 99.6735 56.4041 99.9 56.49C101.01 56.76 102.135 57.03 103.26 57.24C104.04 57.39 104.1 57.345 104.235 58.125C104.311 58.6221 104.311 59.1279 104.235 59.625C103.89 61.515 103.53 63.42 103.065 65.295C102.795 66.45 102.33 67.56 101.94 68.745C100.641 68.5042 99.2996 68.6719 98.1 69.225L95.01 70.185C94.6481 70.2773 94.2924 70.3926 93.945 70.53L89.565 72.705L88.68 73.17C88.68 72.795 88.77 72.6 88.83 72.42C89.4289 70.3725 89.7468 68.2531 89.775 66.12C89.775 65.25 89.97 64.38 90.03 63.51C90.09 63 90.42 62.4 90.165 61.785ZM98.355 99.495C98.355 99.21 98.445 99.075 98.46 98.925C98.5672 98.1596 98.6223 97.3879 98.625 96.615C98.6144 96.14 98.4674 95.6781 98.2014 95.2845C97.9354 94.8908 97.5617 94.582 97.125 94.395C96.3376 94.0136 95.4511 93.8867 94.5883 94.0318C93.7255 94.1769 92.9293 94.587 92.31 95.205L91.755 95.745C91.7641 95.4811 91.8388 95.2235 91.9724 94.9957C92.1059 94.7679 92.2942 94.5769 92.52 94.44C92.8959 94.1918 93.2565 93.9214 93.6 93.63C95.1 92.265 96.765 90.915 98.325 89.55C100.138 87.9993 101.792 86.2707 103.26 84.39C104.608 82.7152 105.699 80.85 106.5 78.855C106.993 77.5922 107.113 76.2147 106.847 74.8856C106.581 73.5564 105.94 72.3313 105 71.355C104.79 71.115 104.535 70.92 104.31 70.695C104.456 70.648 104.614 70.648 104.76 70.695L107.175 71.76C108.045 72.1124 108.747 72.7829 109.14 73.635C109.571 74.4892 109.956 75.3654 110.295 76.26C110.831 77.9344 111.035 79.6974 110.895 81.45C110.775 83.715 109.395 85.515 108.93 87.675L107.595 87.495C107.865 86.925 108.12 86.415 108.36 85.89C109.046 84.6113 109.551 83.2431 109.86 81.825C109.86 81.555 109.965 81.285 109.665 81.195C109.365 81.105 109.2 81.36 109.11 81.645L109.02 81.855C108.57 82.8 108.135 83.76 107.64 84.675C107.145 85.59 106.5 86.52 106.065 87.495C105.034 89.7311 103.883 91.9093 102.615 94.02C101.479 96.0492 100.043 97.895 98.355 99.495ZM96.945 82.71C96.4403 82.7425 95.9351 82.6548 95.4709 82.454C95.0068 82.2532 94.5969 81.9451 94.275 81.555C93.656 80.8617 93.1083 80.1079 92.64 79.305C92.202 78.7136 91.9967 77.9819 92.0631 77.249C92.1295 76.516 92.4629 75.8331 93 75.33C93.8302 74.5275 94.6116 73.676 95.34 72.78C96.6777 71.3636 98.4632 70.4523 100.395 70.2C100.657 70.145 100.928 70.1501 101.188 70.2151C101.448 70.28 101.69 70.4031 101.895 70.575C102.534 71.0646 103.141 71.5958 103.71 72.165C104.447 72.8554 104.978 73.7373 105.243 74.7122C105.508 75.687 105.497 76.7163 105.21 77.685C105.136 77.9401 104.984 78.1656 104.775 78.33C103.77 79.125 102.735 79.83 101.775 80.67C100.441 81.8756 98.7391 82.5946 96.945 82.71ZM102.255 97.5C104.247 94.5299 105.96 91.3814 107.37 88.095L108.87 88.29L107.97 98.505C106.013 98.6132 104.058 98.2693 102.255 97.5ZM97.5 97.5C97.4465 99.0352 96.923 100.517 96 101.745C95.8321 101.927 95.6342 102.079 95.415 102.195C94.8043 102.496 94.1196 102.614 93.4434 102.534C92.7673 102.454 92.1288 102.18 91.605 101.745C91.2926 101.509 91.0525 101.189 90.912 100.823C90.7715 100.458 90.7362 100.06 90.81 99.675C91.1952 98.8046 91.6413 97.9626 92.145 97.155C92.4039 96.6636 92.7753 96.2403 93.2289 95.9197C93.6825 95.5991 94.2054 95.3902 94.755 95.31C96.54 95.16 97.47 95.82 97.455 97.545L97.5 97.5Z" fill="black"/>
<path d="M79.215 148.665C79.215 146.85 79.38 145.02 79.395 143.19C79.3677 142.454 79.2774 141.721 79.125 141C79.125 140.835 78.915 140.715 78.81 140.58C78.7132 140.731 78.6469 140.899 78.615 141.075C78.615 141.945 78.765 142.815 78.75 143.685C78.75 145.185 78.63 146.685 78.57 148.185C78.5439 148.332 78.5088 148.477 78.465 148.62L79.215 148.665Z" fill="black"/>
<path d="M82.38 148.665C82.26 147.9 82.155 147.165 82.02 146.34C82.02 146.025 81.885 145.71 81.825 145.395H81.57C81.5033 145.624 81.473 145.862 81.48 146.1C81.6 146.955 81.78 147.81 81.93 148.65L82.38 148.665Z" fill="black"/>
<path d="M60 110.835C59.9036 111.025 59.8329 111.227 59.79 111.435C59.79 111.885 59.79 112.35 59.79 112.8C59.865 114.465 59.925 116.145 60.045 117.825C60.27 121.02 60.525 124.215 60.765 127.41C60.765 128.355 60.87 129.3 60.945 130.26C61.08 132.15 61.23 134.055 61.35 135.945C61.425 137.1 61.545 138.255 61.515 139.395C61.5671 141.151 61.7475 142.901 62.055 144.63C62.0748 144.979 62.125 145.325 62.205 145.665C62.205 145.83 62.475 145.965 62.625 146.115C62.745 145.935 62.955 145.77 62.955 145.59C62.955 144.75 62.85 143.895 62.79 143.055C62.73 142.215 62.595 141.06 62.52 140.055C62.37 138.075 62.235 136.11 62.1 134.13C62.1 133.08 61.995 132.03 61.92 130.98C61.785 129.24 61.65 127.485 61.5 125.745C61.395 124.44 61.29 123.15 61.17 121.845C61.05 120.54 60.945 119.46 60.825 118.275C60.75 117.555 60.63 116.775 60.57 116.115C60.465 114.48 60.375 112.86 60.255 111.24C60.2622 111.12 60.2622 111 60.255 110.88L60 110.835Z" fill="black"/>
<path d="M73.965 131.79C74.4636 131.914 74.9887 131.878 75.465 131.685C79.4102 130.35 82.8156 127.771 85.17 124.335C85.305 124.155 85.53 123.885 85.17 123.72C84.81 123.555 84.765 123.81 84.63 123.945C83.76 124.875 82.965 125.895 82.035 126.75C79.8155 128.845 77.1328 130.387 74.205 131.25C74.055 131.25 73.935 131.43 73.8 131.52L73.965 131.79Z" fill="black"/>
<path d="M81.885 83.715C82.14 84.315 82.35 84.885 82.62 85.41C83.625 87.298 85.0272 88.9458 86.73 90.24C87.315 90.675 87.84 91.185 88.395 91.65C88.6357 91.8705 88.9089 92.0527 89.205 92.19C89.355 92.19 89.61 92.19 89.805 92.1C89.805 91.905 89.805 91.635 89.655 91.515C89.0322 90.8996 88.3762 90.3187 87.69 89.775C85.9967 88.5129 84.5479 86.9523 83.415 85.17C83.085 84.66 82.875 84.09 82.575 83.58C82.5204 83.51 82.4526 83.4515 82.3754 83.4077C82.2982 83.3639 82.2131 83.3358 82.125 83.325C82.125 83.325 81.975 83.565 81.885 83.715Z" fill="black"/>
<path d="M57.465 98.25C57.465 98.7 57.615 99.105 57.675 99.525C57.915 101.025 58.14 102.525 58.395 104.1C58.56 105.03 58.785 105.96 59.01 106.875C59.0937 107.112 59.2208 107.33 59.385 107.52H59.55C59.6202 107.375 59.6561 107.216 59.655 107.055C59.475 105.555 59.325 103.935 59.055 102.39C58.83 101.16 58.47 99.96 58.155 98.76C58.095 98.445 58.035 98.085 57.465 98.25Z" fill="black"/>
<path d="M80.565 63.255C81.555 63.165 82.56 63.105 83.565 62.97C83.88 62.97 84.405 62.97 84.345 62.445C84.285 61.92 83.775 62.04 83.415 62.07C82.395 62.07 81.375 62.295 80.415 62.31C79.11 62.31 77.805 62.22 76.515 62.145C76.275 62.145 76.005 62.055 75.975 62.34C75.945 62.625 76.23 62.715 76.395 62.745C77.25 62.91 78.12 63.06 78.975 63.15C79.53 63.15 80.085 63.15 80.64 63.15L80.565 63.255Z" fill="black"/>
<path d="M95.925 135.9H95.415C94.9078 135.84 94.4063 135.74 93.915 135.6C92.235 134.97 90.57 134.295 88.89 133.65C88.6564 133.576 88.4146 133.53 88.17 133.515C88.17 134.085 88.635 134.175 88.935 134.295C89.94 134.73 90.96 135.135 91.935 135.555C92.715 135.87 93.435 136.215 94.29 136.485C94.6064 136.553 94.9336 136.553 95.25 136.485C95.3351 136.508 95.4245 136.509 95.5103 136.489C95.5961 136.469 95.6758 136.429 95.7424 136.371C95.8089 136.314 95.8604 136.24 95.8922 136.158C95.924 136.076 95.9353 135.987 95.925 135.9Z" fill="black"/>
<path d="M63.465 75.72C63.2806 75.6987 63.0944 75.6987 62.91 75.72C61.4045 76.1845 59.9708 76.8559 58.65 77.715C58.44 77.85 58.17 78.03 58.41 78.3C58.65 78.57 58.815 78.3 58.98 78.3C60 77.865 60.975 77.37 61.98 76.965C62.5438 76.771 63.1201 76.6156 63.705 76.5C63.8814 76.4751 64.0532 76.4246 64.215 76.35C64.32 76.35 64.455 76.125 64.44 76.02C64.425 75.915 64.29 75.765 64.17 75.735C63.9361 75.7058 63.6999 75.7008 63.465 75.72Z" fill="black"/>
<path d="M79.095 38.145C78.96 38.55 79.245 38.61 79.485 38.67C79.725 38.73 80.415 38.835 80.895 38.88C82.185 39.03 83.475 39.18 84.78 39.285C84.975 39.285 85.335 39.165 85.38 39.03C85.425 38.895 85.185 38.565 84.885 38.52C84.3 38.445 83.7 38.355 83.1 38.31L79.5 38.07C79.3635 38.0864 79.2283 38.1114 79.095 38.145Z" fill="black"/>
<path d="M84.255 90.315C84.105 90.075 83.955 89.82 83.79 89.595C82.92 88.455 82.035 87.33 81.165 86.205C81.1015 86.1016 81.0202 86.0102 80.925 85.935C80.805 85.935 80.625 85.8 80.535 85.935C80.445 86.07 80.445 86.175 80.445 86.31C80.4649 86.4105 80.5116 86.5038 80.58 86.58L83.16 90.165C83.2551 90.3143 83.3903 90.4338 83.55 90.51C83.7538 90.5411 83.9612 90.5411 84.165 90.51L84.255 90.315Z" fill="black"/>
<path d="M84.87 94.365C84.87 94.26 84.765 94.125 84.675 94.065C82.9764 92.8766 81.3853 91.5414 79.92 90.075C79.92 90.075 79.785 90.075 79.725 90.075C79.725 90.75 80.445 91.575 82.44 93.21C83.102 93.8099 83.892 94.2511 84.75 94.5L84.87 94.365Z" fill="black"/>
<path d="M54.855 68.895C55.0624 68.872 55.2649 68.8163 55.455 68.73L59.835 65.73C59.955 65.625 60.105 65.37 60.06 65.25C60.015 65.13 59.7 65.085 59.505 65.25L58.98 65.55L55.17 68.34C55.0149 68.4752 54.8742 68.626 54.75 68.79L54.855 68.895Z" fill="black"/>
<path d="M49.665 45C50.07 45.36 50.34 45 50.595 45C51.7317 44.3169 52.9659 43.8111 54.255 43.5C54.5277 43.4659 54.7982 43.4158 55.065 43.35C55.215 43.35 55.32 43.095 55.44 42.96C55.305 42.885 55.17 42.75 55.035 42.735C54.7625 42.6824 54.4825 42.6824 54.21 42.735C52.7416 43.1286 51.3444 43.7512 50.07 44.58C49.9267 44.7118 49.7915 44.852 49.665 45Z" fill="black"/>
<path d="M44.73 32.475C44.73 32.475 44.82 32.55 44.865 32.55C44.9587 32.5723 45.0564 32.5723 45.15 32.55L48.855 30.45C48.855 30.45 48.855 30.36 48.855 30.195C48.6076 30.1445 48.3525 30.1445 48.105 30.195C46.8494 30.6908 45.6953 31.4128 44.7 32.325C44.7 32.325 44.73 32.4 44.73 32.475Z" fill="black"/>
<path d="M56.73 90.66C56.895 91.965 57.045 93.21 57.225 94.455C57.225 94.53 57.39 94.59 57.585 94.77C57.722 93.6193 57.6354 92.4529 57.33 91.335C57.3 91.095 57.375 90.69 56.73 90.66Z" fill="black"/>
<path d="M89.895 86.79C89.2264 85.6902 88.3379 84.7403 87.285 84C87.132 83.9167 86.9635 83.8657 86.79 83.85L86.685 84.03L89.445 86.85C89.445 86.85 89.655 86.85 89.76 86.955L89.895 86.79Z" fill="black"/>
<path d="M65.445 97.41C64.461 98.6723 63.7093 100.1 63.225 101.625C63.6697 101.29 64.0125 100.838 64.215 100.32C64.4885 99.8783 64.7388 99.4227 64.965 98.955C65.16 98.49 65.685 98.1 65.445 97.41Z" fill="black"/>
<path d="M81.405 24.12C81.225 23.955 81.135 23.82 81.045 23.805L77.49 23.355C77.49 23.355 77.34 23.445 77.22 23.535C77.595 24.03 78.15 23.955 78.585 23.97C79.5 24 80.385 24.495 81.405 24.12Z" fill="black"/>
<path d="M92.025 83.16C91.4495 82.1802 90.7706 81.265 90 80.43C89.82 81.165 90.27 81.48 90.525 81.93C91.335 83.07 91.35 83.055 92.025 83.16Z" fill="black"/>
<path d="M60.735 78.735C61.8474 78.6605 62.9031 78.2171 63.735 77.475C63.735 77.475 63.555 77.28 63.525 77.295C62.58 77.7 61.635 78.135 60.705 78.555L60.735 78.735Z" fill="black"/>
<path d="M101.46 99.735C102.388 100.211 103.418 100.453 104.46 100.44C104.385 100.275 104.34 100.05 104.25 100.035C103.425 99.855 102.6 99.69 101.76 99.555C101.67 99.54 101.565 99.66 101.46 99.735Z" fill="black"/>
<path d="M96.39 58.14C97.89 58.455 99.255 58.59 100.695 58.815L100.8 58.62C100.68 58.5 100.59 58.335 100.44 58.29C100.064 58.1679 99.6774 58.0825 99.285 58.035L96.9 57.81C96.7382 57.8214 96.5776 57.8465 96.42 57.885L96.39 58.14Z" fill="black"/>
<path d="M100.605 55.275C100.304 54.9586 99.9258 54.7259 99.5077 54.5997C99.0896 54.4734 98.6459 54.458 98.22 54.555C98.9538 54.9643 99.7674 55.21 100.605 55.275Z" fill="black"/>
<path d="M98.52 72.24C98.25 72.36 97.995 72.435 97.755 72.57C96.0997 73.5801 94.7231 74.9877 93.75 76.665C93.612 76.8761 93.5295 77.1186 93.51 77.37C93.51 77.535 93.675 77.7 93.765 77.865C93.9348 77.79 94.0917 77.6888 94.23 77.565C94.515 77.13 94.74 76.65 95.025 76.215C95.9477 74.9947 97.0562 73.9267 98.31 73.05C98.55 72.87 98.865 72.72 98.52 72.24Z" fill="black"/>
<path d="M100.425 70.605L99.3 71.925C99.3 72.06 99.555 72.105 99.735 71.925C100.04 71.6026 100.326 71.262 100.59 70.905C100.59 70.905 100.5 70.74 100.425 70.605Z" fill="black"/>
<path d="M91.5 100.5C91.7689 100.259 92.0195 99.9981 92.25 99.72C92.895 98.745 93.525 97.74 94.14 96.72C94.2211 96.6251 94.2777 96.5118 94.305 96.39C94.305 96.285 94.305 96.09 94.305 96.06C94.1751 96.0075 94.0299 96.0075 93.9 96.06C93.7918 96.1617 93.7051 96.2841 93.645 96.42C92.94 97.545 92.235 98.655 91.545 99.78C91.4646 99.9385 91.3993 100.104 91.35 100.275L91.5 100.5Z" fill="black"/>
</svg>
