<svg width="150" height="150" viewBox="0 0 150 150" fill="none" xmlns="http://www.w3.org/2000/svg">
<path d="M90 148.665C90.18 146.73 90.39 144.78 90.51 142.83C90.5321 142.053 90.4869 141.275 90.375 140.505C90.189 137.67 90.2442 134.825 90.54 132C90.66 130.65 90.72 129.285 90.87 127.95C91.065 126.21 91.365 124.47 91.575 122.73C91.785 120.99 91.785 119.625 91.995 118.08C92.355 115.335 92.37 112.59 92.49 109.83C92.6407 108.208 92.881 106.595 93.21 105C93.405 103.605 93.6 102.225 93.81 100.83C93.99 99.72 94.11 98.595 94.395 97.5C94.9244 95.0218 95.3299 92.5186 95.61 90C96.0938 86.5217 96.3095 83.0114 96.255 79.5C96.255 77.25 96.54 75 96.75 72.75C96.8718 71.205 97.0771 69.6678 97.365 68.145C98.1432 64.414 99.191 60.7444 100.5 57.165C101.025 55.665 101.55 54.165 102 52.77C102.405 51.615 102.765 50.445 103.14 49.275C103.65 47.655 104.16 46.02 104.64 44.4C104.925 43.44 105.18 42.465 105.435 41.49C105.795 40.14 106.08 38.76 106.515 37.425C107.085 35.76 107.4 34.035 107.805 32.325C108.285 30.255 108.99 28.23 109.425 26.145C109.98 23.535 110.4 20.88 110.79 18.225C110.878 17.4659 110.788 16.6969 110.527 15.9784C110.267 15.26 109.843 14.6118 109.29 14.085C108.594 13.334 107.643 12.869 106.623 12.7802C105.602 12.6915 104.586 12.9855 103.77 13.605C102.673 14.4111 101.787 15.4714 101.19 16.695C100.777 17.6107 100.412 18.5469 100.095 19.5C99.165 22.02 98.295 24.555 97.41 27.09C97.305 27.39 97.23 27.69 97.155 27.96C98.235 27.96 99.225 27.96 100.155 27.96C100.829 27.9971 101.5 28.0722 102.165 28.185C103.296 28.3627 104.344 28.8868 105.165 29.685C105.72 30.195 106.305 30.675 106.83 31.185C107.091 31.4545 107.309 31.7632 107.475 32.1C107.565 32.25 107.475 32.49 107.475 32.685C107.3 32.6347 107.133 32.5588 106.98 32.46C106.365 31.92 105.795 31.32 105.18 30.78C103.807 29.6177 102.074 28.9659 100.275 28.935C99.3958 28.8826 98.5142 28.8826 97.635 28.935C96.78 28.935 96.765 29.055 96.495 29.835C95.16 33.675 94.2 37.635 92.64 41.4C92.265 42.315 91.995 43.275 91.635 44.295C92.1372 44.2812 92.6396 44.3164 93.135 44.4C93.8931 44.5554 94.6324 44.7918 95.34 45.105C97.035 45.93 98.685 46.845 100.335 47.745C100.62 47.91 101.055 48.03 101.025 48.525C100.725 48.81 100.455 48.615 100.2 48.525L95.52 46.2C94.4122 45.6015 93.1788 45.2726 91.92 45.24H91.41C90.675 47.1 89.79 48.915 89.22 50.82C88.2092 54.1711 86.6916 57.3479 84.72 60.24C84.7115 60.3047 84.7115 60.3703 84.72 60.435C88.68 61.44 91.545 64.215 94.68 66.555C94.68 66.555 94.68 66.78 94.755 66.885C94.38 67.185 94.155 66.885 93.93 66.735C92.835 65.985 91.77 65.235 90.66 64.455C89.5406 63.6944 88.3787 62.9982 87.18 62.37C86.2319 62.0112 85.2595 61.7204 84.27 61.5C84.1179 61.4464 83.9536 61.4376 83.7966 61.4749C83.6397 61.5121 83.4968 61.5937 83.385 61.71C82.6282 62.3378 81.7498 62.8025 80.805 63.075C80.5657 63.1708 80.3089 63.215 80.0513 63.2046C79.7938 63.1943 79.5413 63.1296 79.3105 63.0149C79.0797 62.9002 78.8757 62.738 78.7119 62.539C78.5481 62.34 78.4282 62.1086 78.36 61.86C77.7649 60.0744 77.4511 58.2071 77.43 56.325C77.43 54.645 77.145 52.98 77.04 51.3C77.04 50.205 77.04 49.095 76.905 48C76.755 45.855 76.56 43.71 76.365 41.505C76.0475 41.4474 75.727 41.4074 75.405 41.385H73.38C73.125 41.385 72.825 41.385 72.81 41.04C72.795 40.695 73.095 40.575 73.38 40.59C74.055 40.59 74.73 40.665 75.42 40.695C75.675 40.695 75.96 40.695 76.26 40.695C76.26 39.69 76.26 38.745 76.26 37.815C76.14 36.615 75.885 35.43 75.72 34.245C75.51 32.625 75.405 30.99 75.12 29.385C74.55 26.175 74.43 22.905 74.025 19.68C73.62 16.455 73.035 13.44 72.36 10.35C72.0113 8.3495 70.9963 6.5257 69.48 5.17501C69.1412 4.88013 68.7744 4.6189 68.385 4.39501C68.071 4.20309 67.7177 4.08453 67.3515 4.04817C66.9853 4.01181 66.6156 4.05858 66.27 4.18501C63.675 5.11501 63 6.18001 62.55 9.00001C62.475 9.8734 62.475 10.7516 62.55 11.625C62.55 13.86 62.625 16.125 62.715 18.33C62.715 19.47 62.88 20.61 62.985 21.855H65.58C66.4344 21.9001 67.2906 21.9001 68.145 21.855C68.985 21.75 69.795 21.435 70.62 21.3C71.445 21.165 72.12 20.49 73.005 20.58C73.0063 20.7605 72.9461 20.9361 72.8343 21.0779C72.7225 21.2196 72.5658 21.3191 72.39 21.36C71.19 21.81 70.005 22.245 68.79 22.635C67.818 22.9241 66.798 23.0159 65.79 22.905C64.89 22.83 63.99 22.905 62.985 22.905C63.435 29.43 64.335 35.91 64.395 42.525C64.845 42.525 65.235 42.525 65.64 42.525C67.035 42.45 68.445 42.39 69.825 42.24C70.77 42.135 71.685 41.865 72.615 41.67C72.72 41.67 72.825 41.565 72.9 41.67C73.0771 41.7074 73.2486 41.768 73.41 41.85C73.41 42.015 73.335 42.24 73.2 42.345C72.9372 42.5377 72.6496 42.6941 72.345 42.81C70.9071 43.368 69.3863 43.6823 67.845 43.74H64.5C64.5 49.11 65.37 54.39 64.86 59.73C66.7774 60.1345 68.7463 60.2358 70.695 60.03C71.76 59.88 72.795 59.595 73.86 59.4C73.9592 59.3813 74.0612 59.3837 74.1594 59.4069C74.2576 59.4302 74.3498 59.4738 74.43 59.535C74.655 59.82 74.43 59.985 74.16 60.12C74.0112 60.2206 73.8498 60.3013 73.68 60.36C71.8084 61.0901 69.8079 61.432 67.8 61.365C67.035 61.275 66.3 61.11 65.505 60.99H64.8C64.4702 64.0977 63.3891 67.0784 61.65 69.675C61.901 71.2676 62.3131 72.8307 62.88 74.34C62.9762 74.596 63.1363 74.8232 63.345 75C65.0818 76.4443 66.7251 77.9974 68.265 79.65L68.865 80.205C68.955 80.01 69.03 79.875 69.09 79.725C69.39 79.125 69.645 78.495 69.975 77.91C70.4921 77.0487 70.8574 76.105 71.055 75.12C71.28 74.115 71.715 73.14 72.045 72.12C72.135 71.9155 72.1907 71.6976 72.21 71.475C72.21 70.515 72.21 69.57 72.12 68.61C72.1208 68.3967 72.195 68.1901 72.33 68.025C72.6787 68.943 72.8271 69.925 72.765 70.905L73.605 69.675C74.04 69.015 74.475 68.34 74.94 67.68C74.9944 67.6075 75.0644 67.5482 75.145 67.5066C75.2255 67.4651 75.3144 67.4423 75.405 67.44C75.705 67.545 75.6 67.8 75.48 67.995C74.955 68.91 74.445 69.84 73.875 70.71C72.8387 72.3177 72.1396 74.1191 71.82 76.005C71.584 76.7905 71.2568 77.5457 70.845 78.255L69.795 80.505C69.7224 80.6518 69.6978 80.8177 69.7247 80.9792C69.7516 81.1408 69.8287 81.2897 69.945 81.405L74.61 86.715C74.7 86.805 74.805 86.865 74.955 86.985C75.1207 86.892 75.2722 86.7758 75.405 86.64C77.445 84.315 79.47 82.005 81.405 79.65C82.005 78.945 82.485 78.15 83.025 77.385C83.1191 77.2071 83.2406 77.0452 83.385 76.905C83.475 76.815 83.7 76.74 83.76 76.8C83.8193 76.8555 83.866 76.923 83.897 76.9981C83.9281 77.0731 83.9427 77.1539 83.94 77.235C83.8904 77.4039 83.8089 77.5617 83.7 77.7C82.5562 79.7607 81.1934 81.6919 79.635 83.46C78.345 84.96 77.07 86.355 75.75 87.87C76.02 88.185 76.305 88.56 76.62 88.905C76.935 89.25 77.46 89.835 77.88 90.3C78.004 90.4766 78.1855 90.6046 78.3935 90.6621C78.6015 90.7195 78.823 90.7029 79.02 90.615L82.83 88.845L83.61 88.545C83.73 89.085 83.4 89.205 83.16 89.325C81.795 90.075 80.43 90.825 79.005 91.56L79.95 92.625C80.325 93.03 80.73 93.405 81.105 93.81C81.2517 94.0092 81.3821 94.2199 81.495 94.44C80.97 94.62 80.775 94.32 80.565 94.11C79.71 93.285 78.885 92.445 78.03 91.635C76.53 90.135 74.94 88.845 73.53 87.375C72.12 85.905 71.115 84.675 69.87 83.37C67.3834 80.3148 64.5775 77.534 61.5 75.075C59.7829 73.9366 57.9653 72.9575 56.07 72.15C56.0198 72.121 55.9629 72.1058 55.905 72.1058C55.8471 72.1058 55.7902 72.121 55.74 72.15C55.98 72.36 56.235 72.555 56.46 72.765C57.18 73.47 57.96 74.145 58.59 74.88C58.943 75.2598 59.2038 75.7158 59.3521 76.2127C59.5004 76.7095 59.5322 77.2339 59.445 77.745C59.3354 78.838 58.9194 79.8779 58.245 80.745C57.81 81.3 57.42 81.885 56.955 82.41C56.4976 82.9484 55.9234 83.3754 55.2763 83.6587C54.6291 83.942 53.9259 84.0741 53.22 84.045C50.9901 83.9423 48.8849 82.9864 47.34 81.375C46.845 80.91 46.425 80.355 45.975 79.875L45.81 80.01C45.8026 80.0597 45.8026 80.1103 45.81 80.16C46.7247 81.8345 47.8267 83.3995 49.095 84.825C52.4066 88.3971 56.0589 91.6374 60 94.5C61.4089 95.5257 62.7609 96.6273 64.05 97.8C65.0277 98.7192 65.7291 99.8934 66.075 101.19C66.4703 102.438 67.1716 103.567 68.115 104.475C68.34 104.685 68.76 104.88 68.445 105.255C68.13 105.63 67.86 105.255 67.59 105.12L67.155 104.88C67.8771 106.612 68.9913 108.152 70.41 109.38C71.674 110.751 73.2055 111.849 74.91 112.605V112.815C74.73 112.815 74.535 113.01 74.4 112.965C73.9641 112.851 73.5454 112.68 73.155 112.455C70.9791 111.05 69.04 109.308 67.41 107.295C66.6147 106.168 66.1004 104.866 65.91 103.5C65.8228 103.051 65.6034 102.638 65.28 102.315C65.3605 104.946 66.0758 107.52 67.365 109.815C68.6251 112.048 70.2241 114.072 72.105 115.815C72 116.265 71.715 116.205 71.46 116.07C71.1118 115.932 70.7877 115.74 70.5 115.5C69.09 113.85 67.59 112.245 66.315 110.475C64.9348 108.447 64.1834 106.058 64.155 103.605C64.1767 103.486 64.1767 103.364 64.155 103.245C63.84 104.024 63.7365 104.873 63.855 105.705C63.9597 106.404 63.898 107.119 63.675 107.79C63.465 108.39 63.81 108.945 63.885 109.515C64.4624 112.67 65.9362 115.591 68.13 117.93C68.835 118.74 69.63 119.52 70.305 120.315C70.4247 120.473 70.5254 120.644 70.605 120.825L70.44 121.005C70.1979 120.886 69.967 120.745 69.75 120.585C68.535 119.25 67.335 117.9 66.135 116.55C64.7491 114.961 63.7755 113.055 63.3 111C63.15 110.4 63.105 109.77 62.955 109.155C61.635 112.065 60.345 114.99 60.615 118.395C61.11 118.185 61.29 118.395 61.38 118.905C61.695 120.405 61.995 122.01 62.4 123.525C62.5973 124.395 62.9261 125.229 63.375 126C64.365 127.59 65.49 129.105 66.555 130.65C66.72 130.905 67.035 131.145 66.555 131.505C66.33 131.28 66.09 131.07 65.88 130.845C64.4178 129.151 63.1265 127.318 62.025 125.37C61.5016 124.345 61.1518 123.24 60.99 122.1C60.855 121.485 60.765 120.87 60.615 120.255C60.3527 121.532 60.3527 122.848 60.615 124.125C60.9582 125.695 61.5186 127.21 62.28 128.625C62.3091 128.693 62.3443 128.758 62.385 128.82C62.52 129.105 62.64 129.42 62.28 129.6C61.92 129.78 61.785 129.6 61.605 129.3C60.8724 128.295 60.3005 127.181 59.91 126C59.7836 125.632 59.6069 125.284 59.385 124.965C59.385 125.475 59.385 125.97 59.385 126.465C59.4067 126.765 59.4067 127.065 59.385 127.365C59.3325 127.561 59.2407 127.745 59.115 127.905C58.98 127.74 58.77 127.605 58.725 127.425C58.5816 126.935 58.4812 126.433 58.425 125.925C58.425 125.235 58.425 124.53 58.425 123.825C58.4218 123.651 58.4524 123.478 58.515 123.315C58.8211 122.628 58.95 121.875 58.89 121.125C58.89 119.235 58.995 117.36 59.19 115.485C59.3727 114.4 59.659 113.335 60.045 112.305C60.5169 110.772 61.161 109.298 61.965 107.91C62.2167 107.505 62.3468 107.037 62.34 106.56C62.1866 104.62 62.5817 102.676 63.48 100.95C63.6499 100.67 63.7073 100.337 63.6404 100.016C63.5736 99.6962 63.3876 99.4133 63.12 99.225L60.24 96.63L60.12 96.72C60.255 97.335 60.42 97.92 60.525 98.535C60.683 99.1444 60.7139 99.7799 60.6159 100.402C60.5178 101.024 60.2929 101.619 59.955 102.15C59.6087 102.73 59.1038 103.198 58.5 103.5C57.8494 103.886 57.1143 104.107 56.3586 104.144C55.603 104.18 54.8499 104.031 54.165 103.71C53.5003 103.362 52.8807 102.934 52.32 102.435C50.985 101.145 49.74 99.78 48.42 98.415C46.5448 99.4656 44.4183 99.9842 42.27 99.915C42.27 100.41 42.405 100.86 42.48 101.325C43.14 104.685 43.77 108.06 44.46 111.435C44.6592 112.311 44.9301 113.169 45.27 114C45.915 115.71 46.605 117.405 47.295 119.13C48 117.795 48.675 116.475 49.395 115.17C50.0054 113.857 50.7334 112.602 51.57 111.42H51.795C51.7882 111.608 51.7579 111.794 51.705 111.975L48.705 118.08C48.525 118.44 48.36 118.8 48.165 119.16C47.97 119.52 47.835 119.61 47.595 119.94L48.99 123.3C49.545 124.665 50.13 126.015 50.64 127.41C51.24 129.09 51.81 130.77 52.32 132.48C52.83 134.19 53.175 135.48 53.55 136.98C53.64 137.415 53.835 137.58 54.24 137.595C56.5676 137.836 58.9193 137.533 61.11 136.71C62.1113 136.311 63.1387 135.98 64.185 135.72C66.06 135.165 67.95 134.655 69.825 134.115C70.0131 134.047 70.2102 134.006 70.41 133.995C70.4903 134.01 70.5664 134.042 70.6336 134.089C70.7008 134.135 70.7575 134.195 70.8 134.265C70.8 134.265 70.8 134.565 70.65 134.64C70.474 134.777 70.2762 134.883 70.065 134.955C69.03 135.33 67.995 135.72 66.945 136.065C64.455 136.905 61.95 137.745 59.55 138.69C59.355 138.9 59.205 139.2 58.965 139.29C57.7528 139.763 56.4703 140.032 55.17 140.085C54.915 140.085 54.54 140.19 54.525 139.635L58.26 139.005V138.9H53.805C53.805 139.53 53.91 140.145 53.955 140.76C53.955 141.63 54.09 142.515 54.105 143.385C54.0787 143.562 54.1217 143.741 54.2252 143.887C54.3287 144.032 54.4846 144.132 54.66 144.165C55.71 144.39 56.745 144.645 57.81 144.81C58.875 144.975 59.94 145.035 61.02 145.17C61.2522 145.207 61.4789 145.273 61.695 145.365V145.575C61.514 145.682 61.3163 145.758 61.11 145.8C60.36 145.8 59.61 145.8 58.86 145.65C57.64 145.51 56.425 145.36 55.215 145.2C54.8688 145.123 54.528 145.022 54.195 144.9V148.47H51.795C51.795 146.55 51.645 144.615 51.585 142.68C51.5754 140.345 51.324 138.018 50.835 135.735C50.587 134.72 50.2866 133.719 49.935 132.735C49.05 130.155 48.15 127.56 47.19 125.01C46.23 122.46 45.09 119.535 43.98 116.82C43.0403 114.627 42.3413 112.339 41.895 109.995C41.25 106.53 40.62 103.05 40.065 99.495C39.84 98.085 39.825 96.645 39.705 95.22C39.51 92.82 39.33 90.42 39.06 88.035C38.9473 87.2894 38.7196 86.5658 38.385 85.89C37.3481 83.705 36.9478 81.272 37.23 78.87C37.4647 76.7456 38.0849 74.6819 39.06 72.78C39.3884 72.0789 39.8554 71.4516 40.4329 70.936C41.0103 70.4204 41.6863 70.0271 42.42 69.78L45.78 68.535C45.78 68.355 45.66 68.145 45.585 67.935C44.684 65.2216 44.0412 62.4292 43.665 59.595C43.5146 58.4144 43.6702 57.215 44.1167 56.1118C44.5632 55.0086 45.2858 54.0386 46.215 53.295C48.0967 51.6315 50.4745 50.635 52.98 50.46C54.0107 50.3156 55.061 50.4844 55.9945 50.9445C56.928 51.4045 57.7017 52.1347 58.215 53.04C59.6826 55.2856 60.9908 57.6313 62.13 60.06C62.13 60.225 62.28 60.375 62.4 60.63C62.4646 60.5043 62.5197 60.3739 62.565 60.24C62.685 58.44 62.925 56.64 62.88 54.84C62.79 51.18 62.52 47.52 62.355 43.86C62.355 42.795 62.355 41.715 62.355 40.635C62.25 38.55 62.115 36.48 61.98 34.395C61.89 32.895 61.785 31.395 61.665 29.97C61.5 28.125 61.29 26.28 61.14 24.435C60.99 22.59 60.81 20.385 60.72 18.36C60.63 16.335 60.54 14.175 60.495 12C60.495 10.86 60.495 9.69001 60.495 8.55001C60.5606 7.03547 61.0836 5.57635 61.995 4.36501C62.9478 3.21347 64.2302 2.38118 65.67 1.98001C66.5232 1.74708 67.4222 1.73934 68.2792 1.95754C69.1363 2.17575 69.9221 2.61245 70.56 3.22501C71.689 4.11869 72.5931 5.26425 73.2 6.57001C74.0421 8.39535 74.647 10.321 75 12.3C75.345 14.28 75.69 16.26 75.945 18.3C76.2 20.34 76.29 22.095 76.5 23.985C76.71 25.875 76.98 27.57 77.22 29.355C77.325 30.255 77.385 31.155 77.505 32.04C77.745 33.855 78.015 35.67 78.255 37.485C78.3296 37.9057 78.3598 38.333 78.345 38.76C78.3147 41.04 78.4803 43.3184 78.84 45.57C78.9391 46.376 78.9742 47.1885 78.945 48C78.9503 49.5043 79.0454 51.007 79.23 52.5C79.44 54.18 79.47 55.89 79.545 57.6C79.6393 58.7276 79.8453 59.8431 80.16 60.93C81.115 60.724 81.987 60.2384 82.665 59.535C83.0416 59.2024 83.3698 58.8186 83.64 58.395C85.057 56.2037 86.1862 53.8394 87 51.36C87.48 49.755 88.17 48.225 88.77 46.65C88.905 46.305 89.085 45.96 89.205 45.615C90.48 41.94 91.755 38.265 93 34.59C94.65 29.67 96.24 24.72 97.905 19.815C98.3743 18.5134 98.91 17.2368 99.51 15.99C100.283 14.3893 101.456 13.0151 102.915 12C103.624 11.4425 104.447 11.0474 105.326 10.8426C106.204 10.6379 107.117 10.6284 108 10.815C108.806 11.0345 109.559 11.413 110.216 11.9282C110.873 12.4435 111.42 13.085 111.825 13.815C112.836 15.3149 113.223 17.1494 112.905 18.93C112.425 21.93 111.975 24.93 111.255 27.93C110.64 30.435 109.935 32.91 109.44 35.43C109.245 36.435 108.84 37.395 108.555 38.43C108.27 39.465 107.985 40.77 107.655 41.925C107.19 43.53 106.71 45.135 106.155 46.74C105.915 47.535 105.675 48.33 105.405 49.11C104.85 50.82 104.295 52.545 103.695 54.24C102.075 58.562 100.708 62.9744 99.6 67.455C99.1634 69.6135 98.8677 71.7981 98.715 73.995C98.415 77.16 98.46 80.31 98.355 83.475C98.265 85.965 97.86 88.455 97.59 90.975C97.455 92.295 97.335 93.63 97.11 94.935C96.825 96.645 96.39 98.325 96.09 100.02C95.85 101.43 95.76 102.855 95.55 104.28C95.4797 105.026 95.3645 105.768 95.205 106.5C94.7814 108.41 94.595 110.365 94.65 112.32C94.6405 114.502 94.4953 116.681 94.215 118.845C94.02 120.495 93.93 122.145 93.735 123.795C93.54 125.445 93.225 127.215 93 129C92.5329 132.686 92.4174 136.407 92.655 140.115C92.7958 142.489 92.6953 144.871 92.355 147.225C92.355 147.735 92.355 148.23 92.28 148.725L90 148.665ZM59.835 61.785C60.315 61.665 60.36 62.01 60.42 62.295C60.63 63.345 60.84 64.41 61.035 65.46C61.17 66.225 61.26 66.96 61.395 67.92L62.775 65.235C62.3968 64.7305 62.0559 64.1991 61.755 63.645C60.6648 61.1119 59.4122 58.6518 58.005 56.28C57.4506 55.3519 56.8237 54.4692 56.13 53.64C55.7835 53.2515 55.3292 52.9747 54.825 52.845C53.8833 52.5451 52.8717 52.5451 51.93 52.845C50.8989 53.1807 49.8958 53.597 48.93 54.09C48.2175 54.5511 47.554 55.0838 46.95 55.68C46.7646 55.899 46.6083 56.141 46.485 56.4C46.7298 56.4155 46.9753 56.4155 47.22 56.4L50.025 55.89C50.295 55.89 50.55 55.725 50.745 56.16C50.5428 56.2934 50.3265 56.4041 50.1 56.49C48.99 56.76 47.865 57.03 46.74 57.24C45.96 57.39 45.9 57.345 45.765 58.125C45.6888 58.6221 45.6888 59.1279 45.765 59.625C46.11 61.515 46.47 63.42 46.935 65.295C47.205 66.45 47.67 67.56 48.06 68.745C49.3589 68.5042 50.7004 68.6719 51.9 69.225L54.99 70.185C55.352 70.2773 55.7077 70.3926 56.055 70.53L60.435 72.705L61.32 73.17C61.32 72.795 61.23 72.6 61.17 72.42C60.5711 70.3725 60.2532 68.2531 60.225 66.12C60.225 65.25 60.03 64.38 59.97 63.51C59.91 63 59.58 62.4 59.835 61.785ZM51.645 99.495C51.645 99.21 51.555 99.075 51.54 98.925C51.4328 98.1596 51.3777 97.3879 51.375 96.615C51.3856 96.14 51.5327 95.6781 51.7986 95.2845C52.0646 94.8908 52.4383 94.582 52.875 94.395C53.6624 94.0136 54.549 93.8867 55.4117 94.0318C56.2745 94.1769 57.0708 94.587 57.69 95.205L58.245 95.745C58.2359 95.4811 58.1612 95.2235 58.0276 94.9957C57.8941 94.7679 57.7059 94.5769 57.48 94.44C57.1041 94.1918 56.7435 93.9214 56.4 93.63C54.9 92.265 53.235 90.915 51.675 89.55C49.8616 87.9993 48.2084 86.2707 46.74 84.39C45.3924 82.7152 44.3006 80.85 43.5 78.855C43.0075 77.5922 42.887 76.2147 43.1529 74.8856C43.4187 73.5564 44.0597 72.3313 45 71.355C45.21 71.115 45.465 70.92 45.69 70.695C45.5437 70.648 45.3863 70.648 45.24 70.695L42.825 71.76C41.9555 72.1124 41.2528 72.7829 40.86 73.635C40.4293 74.4892 40.0438 75.3654 39.705 76.26C39.169 77.9344 38.9652 79.6974 39.105 81.45C39.225 83.715 40.605 85.515 41.07 87.675L42.405 87.495C42.135 86.925 41.88 86.415 41.64 85.89C40.9535 84.6113 40.4487 83.2431 40.14 81.825C40.14 81.555 40.035 81.285 40.335 81.195C40.635 81.105 40.8 81.36 40.89 81.645L40.98 81.855C41.43 82.8 41.865 83.76 42.36 84.675C42.855 85.59 43.5 86.52 43.935 87.495C44.9656 89.7311 46.1173 91.9093 47.385 94.02C48.5211 96.0492 49.9573 97.895 51.645 99.495ZM53.055 82.71C53.5597 82.7425 54.0649 82.6548 54.5291 82.454C54.9933 82.2532 55.4031 81.9451 55.725 81.555C56.344 80.8617 56.8918 80.1079 57.36 79.305C57.798 78.7136 58.0033 77.9819 57.937 77.249C57.8706 76.516 57.5371 75.8331 57 75.33C56.1698 74.5275 55.3884 73.676 54.66 72.78C53.3223 71.3636 51.5368 70.4523 49.605 70.2C49.3429 70.145 49.0717 70.1501 48.8119 70.2151C48.5521 70.28 48.3104 70.4031 48.105 70.575C47.4658 71.0646 46.8595 71.5958 46.29 72.165C45.5525 72.8554 45.0217 73.7373 44.7568 74.7122C44.4919 75.687 44.5034 76.7163 44.79 77.685C44.8643 77.9401 45.0164 78.1656 45.225 78.33C46.23 79.125 47.265 79.83 48.225 80.67C49.5586 81.8756 51.2609 82.5946 53.055 82.71ZM47.745 97.5C45.7528 94.5299 44.0405 91.3814 42.63 88.095L41.13 88.29L42.03 98.505C43.9869 98.6132 45.9424 98.2693 47.745 97.5ZM52.5 97.5C52.5535 99.0352 53.0771 100.517 54 101.745C54.168 101.927 54.3658 102.079 54.585 102.195C55.1957 102.496 55.8805 102.614 56.5566 102.534C57.2327 102.454 57.8712 102.18 58.395 101.745C58.7075 101.509 58.9475 101.189 59.088 100.823C59.2285 100.458 59.2638 100.06 59.19 99.675C58.8048 98.8046 58.3587 97.9626 57.855 97.155C57.5961 96.6636 57.2247 96.2403 56.7711 95.9197C56.3176 95.5991 55.7947 95.3902 55.245 95.31C53.46 95.16 52.53 95.82 52.545 97.545L52.5 97.5Z" fill="black"/>
<path d="M70.785 148.665C70.785 146.85 70.62 145.02 70.605 143.19C70.6323 142.454 70.7226 141.721 70.875 141C70.875 140.835 71.085 140.715 71.19 140.58C71.2868 140.731 71.3531 140.899 71.385 141.075C71.385 141.945 71.235 142.815 71.25 143.685C71.25 145.185 71.37 146.685 71.43 148.185C71.4561 148.332 71.4912 148.477 71.535 148.62L70.785 148.665Z" fill="black"/>
<path d="M67.62 148.665C67.74 147.9 67.845 147.165 67.98 146.34C67.98 146.025 68.115 145.71 68.175 145.395H68.43C68.4967 145.624 68.527 145.862 68.52 146.1C68.4 146.955 68.22 147.81 68.07 148.65L67.62 148.665Z" fill="black"/>
<path d="M90 110.835C90.0964 111.025 90.1671 111.227 90.21 111.435C90.21 111.885 90.21 112.35 90.21 112.8C90.135 114.465 90.075 116.145 89.955 117.825C89.73 121.02 89.475 124.215 89.235 127.41C89.235 128.355 89.13 129.3 89.055 130.26C88.92 132.15 88.77 134.055 88.65 135.945C88.575 137.1 88.455 138.255 88.485 139.395C88.4329 141.151 88.2525 142.901 87.945 144.63C87.9252 144.979 87.875 145.325 87.795 145.665C87.795 145.83 87.525 145.965 87.375 146.115C87.255 145.935 87.045 145.77 87.045 145.59C87.045 144.75 87.15 143.895 87.21 143.055C87.27 142.215 87.405 141.06 87.48 140.055C87.63 138.075 87.765 136.11 87.9 134.13C87.9 133.08 88.005 132.03 88.08 130.98C88.215 129.24 88.35 127.485 88.5 125.745C88.605 124.44 88.71 123.15 88.83 121.845C88.95 120.54 89.055 119.46 89.175 118.275C89.25 117.555 89.37 116.775 89.43 116.115C89.535 114.48 89.625 112.86 89.745 111.24C89.7378 111.12 89.7378 111 89.745 110.88L90 110.835Z" fill="black"/>
<path d="M76.035 131.79C75.5365 131.914 75.0113 131.878 74.535 131.685C70.5899 130.35 67.1845 127.771 64.83 124.335C64.695 124.155 64.47 123.885 64.83 123.72C65.19 123.555 65.235 123.81 65.37 123.945C66.24 124.875 67.035 125.895 67.965 126.75C70.1846 128.845 72.8673 130.387 75.795 131.25C75.945 131.25 76.065 131.43 76.2 131.52L76.035 131.79Z" fill="black"/>
<path d="M68.115 83.715C67.86 84.315 67.65 84.885 67.38 85.41C66.375 87.298 64.9728 88.9458 63.27 90.24C62.685 90.675 62.16 91.185 61.605 91.65C61.3643 91.8705 61.0911 92.0527 60.795 92.19C60.645 92.19 60.39 92.19 60.195 92.1C60.195 91.905 60.195 91.635 60.345 91.515C60.9678 90.8996 61.6238 90.3187 62.31 89.775C64.0033 88.5129 65.4521 86.9523 66.585 85.17C66.915 84.66 67.125 84.09 67.425 83.58C67.4796 83.51 67.5474 83.4515 67.6246 83.4077C67.7018 83.3639 67.7869 83.3358 67.875 83.325C67.875 83.325 68.025 83.565 68.115 83.715Z" fill="black"/>
<path d="M92.535 98.25C92.535 98.7 92.385 99.105 92.325 99.525C92.085 101.025 91.86 102.525 91.605 104.1C91.44 105.03 91.215 105.96 90.99 106.875C90.9063 107.112 90.7792 107.33 90.615 107.52H90.45C90.3798 107.375 90.3439 107.216 90.345 107.055C90.525 105.555 90.675 103.935 90.945 102.39C91.17 101.16 91.53 99.96 91.845 98.76C91.905 98.445 91.965 98.085 92.535 98.25Z" fill="black"/>
<path d="M69.435 63.255C68.445 63.165 67.44 63.105 66.435 62.97C66.12 62.97 65.595 62.97 65.655 62.445C65.715 61.92 66.225 62.04 66.585 62.07C67.605 62.07 68.625 62.295 69.585 62.31C70.89 62.31 72.195 62.22 73.485 62.145C73.725 62.145 73.995 62.055 74.025 62.34C74.055 62.625 73.77 62.715 73.605 62.745C72.75 62.91 71.88 63.06 71.025 63.15C70.47 63.15 69.915 63.15 69.36 63.15L69.435 63.255Z" fill="black"/>
<path d="M54.075 135.9H54.585C55.0922 135.84 55.5937 135.74 56.085 135.6C57.765 134.97 59.43 134.295 61.11 133.65C61.3436 133.576 61.5854 133.53 61.83 133.515C61.83 134.085 61.365 134.175 61.065 134.295C60.06 134.73 59.04 135.135 58.065 135.555C57.285 135.87 56.565 136.215 55.71 136.485C55.3936 136.553 55.0664 136.553 54.75 136.485C54.6649 136.508 54.5755 136.509 54.4897 136.489C54.4039 136.469 54.3242 136.429 54.2576 136.371C54.1911 136.314 54.1396 136.24 54.1078 136.158C54.076 136.076 54.0647 135.987 54.075 135.9Z" fill="black"/>
<path d="M86.535 75.72C86.7194 75.6987 86.9056 75.6987 87.09 75.72C88.5955 76.1845 90.0292 76.8559 91.35 77.715C91.56 77.85 91.83 78.03 91.59 78.3C91.35 78.57 91.185 78.3 91.02 78.3C90 77.865 89.025 77.37 88.02 76.965C87.4562 76.771 86.8799 76.6156 86.295 76.5C86.1186 76.4751 85.9468 76.4246 85.785 76.35C85.68 76.35 85.545 76.125 85.56 76.02C85.575 75.915 85.71 75.765 85.83 75.735C86.0639 75.7058 86.3001 75.7008 86.535 75.72Z" fill="black"/>
<path d="M70.905 38.145C71.04 38.55 70.755 38.61 70.515 38.67C70.275 38.73 69.585 38.835 69.105 38.88C67.815 39.03 66.525 39.18 65.22 39.285C65.025 39.285 64.665 39.165 64.62 39.03C64.575 38.895 64.815 38.565 65.115 38.52C65.7 38.445 66.3 38.355 66.9 38.31L70.5 38.07C70.6365 38.0864 70.7717 38.1114 70.905 38.145Z" fill="black"/>
<path d="M65.745 90.315C65.895 90.075 66.045 89.82 66.21 89.595C67.08 88.455 67.965 87.33 68.835 86.205C68.8985 86.1016 68.9798 86.0102 69.075 85.935C69.195 85.935 69.375 85.8 69.465 85.935C69.555 86.07 69.555 86.175 69.555 86.31C69.5351 86.4105 69.4884 86.5038 69.42 86.58L66.84 90.165C66.7449 90.3143 66.6097 90.4338 66.45 90.51C66.2462 90.5411 66.0388 90.5411 65.835 90.51L65.745 90.315Z" fill="black"/>
<path d="M65.13 94.365C65.13 94.26 65.235 94.125 65.325 94.065C67.0236 92.8766 68.6147 91.5414 70.08 90.075C70.08 90.075 70.215 90.075 70.275 90.075C70.275 90.75 69.555 91.575 67.56 93.21C66.898 93.8099 66.108 94.2511 65.25 94.5L65.13 94.365Z" fill="black"/>
<path d="M95.145 68.895C94.9376 68.872 94.7351 68.8163 94.545 68.73L90.165 65.73C90.045 65.625 89.895 65.37 89.94 65.25C89.985 65.13 90.3 65.085 90.495 65.25L91.02 65.55L94.83 68.34C94.9851 68.4752 95.1258 68.626 95.25 68.79L95.145 68.895Z" fill="black"/>
<path d="M100.335 45C99.93 45.36 99.66 45 99.405 45C98.2683 44.3169 97.0341 43.8111 95.745 43.5C95.4723 43.4659 95.2018 43.4158 94.935 43.35C94.785 43.35 94.68 43.095 94.56 42.96C94.695 42.885 94.83 42.75 94.965 42.735C95.2375 42.6824 95.5175 42.6824 95.79 42.735C97.2584 43.1286 98.6556 43.7512 99.93 44.58C100.073 44.7118 100.209 44.852 100.335 45Z" fill="black"/>
<path d="M105.27 32.475C105.27 32.475 105.18 32.55 105.135 32.55C105.041 32.5723 104.944 32.5723 104.85 32.55L101.145 30.45C101.145 30.45 101.145 30.36 101.145 30.195C101.392 30.1445 101.648 30.1445 101.895 30.195C103.151 30.6908 104.305 31.4128 105.3 32.325C105.3 32.325 105.27 32.4 105.27 32.475Z" fill="black"/>
<path d="M93.27 90.66C93.105 91.965 92.955 93.21 92.775 94.455C92.775 94.53 92.61 94.59 92.415 94.77C92.278 93.6193 92.3646 92.4529 92.67 91.335C92.7 91.095 92.625 90.69 93.27 90.66Z" fill="black"/>
<path d="M60.105 86.79C60.7736 85.6902 61.6621 84.7403 62.715 84C62.868 83.9167 63.0365 83.8657 63.21 83.85L63.315 84.03L60.555 86.85C60.555 86.85 60.345 86.85 60.24 86.955L60.105 86.79Z" fill="black"/>
<path d="M84.555 97.41C85.539 98.6723 86.2907 100.1 86.775 101.625C86.3304 101.29 85.9876 100.838 85.785 100.32C85.5116 99.8783 85.2612 99.4227 85.035 98.955C84.84 98.49 84.315 98.1 84.555 97.41Z" fill="black"/>
<path d="M68.595 24.12C68.775 23.955 68.865 23.82 68.955 23.805L72.51 23.355C72.51 23.355 72.66 23.445 72.78 23.535C72.405 24.03 71.85 23.955 71.415 23.97C70.5 24 69.615 24.495 68.595 24.12Z" fill="black"/>
<path d="M57.975 83.16C58.5505 82.1802 59.2294 81.265 60 80.43C60.18 81.165 59.73 81.48 59.475 81.93C58.665 83.07 58.65 83.055 57.975 83.16Z" fill="black"/>
<path d="M89.265 78.735C88.1527 78.6605 87.097 78.2171 86.265 77.475C86.265 77.475 86.445 77.28 86.475 77.295C87.42 77.7 88.365 78.135 89.295 78.555L89.265 78.735Z" fill="black"/>
<path d="M48.54 99.735C47.6123 100.211 46.5825 100.453 45.54 100.44C45.615 100.275 45.66 100.05 45.75 100.035C46.575 99.855 47.4 99.69 48.24 99.555C48.33 99.54 48.435 99.66 48.54 99.735Z" fill="black"/>
<path d="M53.61 58.14C52.11 58.455 50.745 58.59 49.305 58.815L49.2 58.62C49.32 58.5 49.41 58.335 49.56 58.29C49.9359 58.1679 50.3227 58.0825 50.715 58.035L53.1 57.81C53.2618 57.8214 53.4224 57.8465 53.58 57.885L53.61 58.14Z" fill="black"/>
<path d="M49.395 55.275C49.6961 54.9586 50.0742 54.7259 50.4923 54.5997C50.9104 54.4734 51.3542 54.458 51.78 54.555C51.0463 54.9643 50.2327 55.21 49.395 55.275Z" fill="black"/>
<path d="M51.48 72.24C51.75 72.36 52.005 72.435 52.245 72.57C53.9003 73.5801 55.2769 74.9877 56.25 76.665C56.388 76.8761 56.4705 77.1186 56.49 77.37C56.49 77.535 56.325 77.7 56.235 77.865C56.0652 77.79 55.9083 77.6888 55.77 77.565C55.485 77.13 55.26 76.65 54.975 76.215C54.0523 74.9947 52.9438 73.9267 51.69 73.05C51.45 72.87 51.135 72.72 51.48 72.24Z" fill="black"/>
<path d="M49.575 70.605L50.7 71.925C50.7 72.06 50.445 72.105 50.265 71.925C49.9597 71.6026 49.6742 71.262 49.41 70.905C49.41 70.905 49.5 70.74 49.575 70.605Z" fill="black"/>
<path d="M58.5 100.5C58.2311 100.259 57.9805 99.9981 57.75 99.72C57.105 98.745 56.475 97.74 55.86 96.72C55.7789 96.6251 55.7223 96.5118 55.695 96.39C55.695 96.285 55.695 96.09 55.695 96.06C55.8249 96.0075 55.9701 96.0075 56.1 96.06C56.2082 96.1617 56.2949 96.2841 56.355 96.42C57.06 97.545 57.765 98.655 58.455 99.78C58.5354 99.9385 58.6007 100.104 58.65 100.275L58.5 100.5Z" fill="black"/>
</svg>
